<svg xmlns="http://www.w3.org/2000/svg" width="30" height="30" viewBox="0 0 30 30"><defs><style>.a{fill:#8bc105;}.b{fill:#fff;}</style></defs><g transform="translate(-1179 -1151)"><g transform="translate(1179 1151)"><path class="a" d="M15,0A15,15,0,1,1,0,15,15,15,0,0,1,15,0Z" transform="translate(0 0)"/><path class="b" d="M.246,7.188,5.733.325,6,0l.326.274,1.046.873.318.274-.268.334L3.4,6.777H15.813V9.019H3.408L7.431,14.05l.268.334-.326.274-1.054.881-.326.274-.268-.334L.237,8.617A1.178,1.178,0,0,1,.246,7.188Z" transform="translate(7 7.001)"/></g></g></svg>