<svg xmlns="http://www.w3.org/2000/svg" width="17.108" height="24.26" viewBox="0 0 17.108 24.26"><defs><style>.a{fill:#fff;}</style></defs><path class="a" d="M11.767,24.159a10.493,10.493,0,0,1-1.339-.508A11.587,11.587,0,0,1,9.1,22.938c-.45-.283-.88-.586-1.3-.909a14.6,14.6,0,0,1-1.271-1.114A16.165,16.165,0,0,1,5.4,19.732q-.542-.63-1.055-1.319c-.332-.459-.665-.938-.977-1.427s-.606-1-.889-1.515-.518-1.046-.753-1.583-.45-1.075-.635-1.6S.743,11.21.6,10.672.332,9.6.244,9.079C.156,8.5.078,7.946.039,7.4A14.444,14.444,0,0,1,.01,5.805a12.7,12.7,0,0,1,.147-1.5A8.639,8.639,0,0,1,.479,2.9a2.3,2.3,0,0,1,.44-.8,4.151,4.151,0,0,1,.665-.645A4.393,4.393,0,0,1,2.3.968c.235-.137.43-.235.577-.3a6.506,6.506,0,0,1,.713-.3C3.841.274,4.1.2,4.369.127A5.139,5.139,0,0,1,5.131.01a1.649,1.649,0,0,1,.655.068,1.3,1.3,0,0,1,.567.381,4.714,4.714,0,0,1,.606.84c.147.264.3.567.459.9s.313.7.459,1.095c.039.117.117.332.235.655s.215.674.323,1.055a11.475,11.475,0,0,1,.235,1.153,2.189,2.189,0,0,1-.02.909,1.3,1.3,0,0,1-.85.84,13.818,13.818,0,0,1-1.486.479c-.205.049-.41.108-.625.166a3.608,3.608,0,0,0-.547.186,1.374,1.374,0,0,0-.362.176.42.42,0,0,0-.1.088A9.217,9.217,0,0,0,5.16,11.19a15.224,15.224,0,0,0,1.007,2.316,15.03,15.03,0,0,0,1.358,2.121,9.4,9.4,0,0,0,1.544,1.632A1.248,1.248,0,0,0,9.2,17.22a1.665,1.665,0,0,0,.342-.186A5.326,5.326,0,0,0,10,16.673l.5-.43a11.429,11.429,0,0,1,1.212-.968,1.3,1.3,0,0,1,1.173-.235,2.208,2.208,0,0,1,.772.489,8.238,8.238,0,0,1,.811.84c.264.3.489.586.694.86l.42.567q.352.513.645,1c.176.293.342.6.489.9a4.172,4.172,0,0,1,.352.958,1.39,1.39,0,0,1,0,.694,1.884,1.884,0,0,1-.313.586,4.753,4.753,0,0,1-.518.567,6.391,6.391,0,0,1-.635.518,6.52,6.52,0,0,1-.645.42c-.147.088-.332.186-.577.3a6.24,6.24,0,0,1-.8.323,4.141,4.141,0,0,1-.919.186A2.145,2.145,0,0,1,11.767,24.159Z" transform="translate(0 -0.003)"/></svg>