<svg xmlns="http://www.w3.org/2000/svg" xmlns:xlink="http://www.w3.org/1999/xlink" width="187.753" height="72.756" viewBox="0 0 187.753 72.756"><defs><style>.a{fill:none;}.b{clip-path:url(#a);}.c{fill:#fff;}.d,.e{fill:#ba8748;}.d{fill-rule:evenodd;}</style><clipPath id="a"><rect class="a" width="187.753" height="72.756"/></clipPath></defs><g class="b"><path class="c" d="M515.961,200.256l0-.006h-9.943l6.7,6.834-1.321,5.061,10.334,3.876-3.767-10.29-5.2,1.4-.256-.261L537.3,200.25H516.282l0,.006Z" transform="translate(-473.658 -159.98)"/><path class="c" d="M496.887,206.972l-5.1-1.342-3.847,10.441,10.286-3.874-1.38-5.18.26-.256,6.591,24.889v-21.2l-.026.01v-.318l.026-.01V200.25Z" transform="translate(-471.333 -159.98)"/><path class="c" d="M517.93,190.376l3.8-10.387-10.251,3.773,1.392,5.227-.259.256-6.592-24.889v31.4l6.807-6.722Z" transform="translate(-473.658 -155.486)"/><path class="c" d="M496.06,185.95l-10.448-3.964,3.852,10.5,5.2-1.4.255.261-24.794,6.617H501.4l-6.7-6.834Z" transform="translate(-469.043 -157.693)"/><g transform="translate(0 0)"><g transform="translate(16.067 23.786)"><path class="d" d="M511.944,185.721l.072.289,10.474-3.855-5.768,15.773h.319l5.952-16.273Z" transform="translate(-490.486 -181.438)"/><path class="d" d="M491.772,192.677l-3.95-10.764,15.628,5.929v-.316l-16.131-6.12,4.163,11.343Z" transform="translate(-487.32 -181.407)"/><path class="d" d="M517.9,206.324l3.825,10.448-15.7-5.889-.036.014v.318l.037-.014,16.2,6.076-4.036-11.026Z" transform="translate(-489.72 -184.518)"/><path class="d" d="M498.282,212.166l-10.419,3.924,5.78-15.687h-.314L487.361,216.6l10.993-4.14Z" transform="translate(-487.325 -183.785)"/></g><path class="d" d="M512.827,192.566l-6.807,6.722H537.3L512.5,205.9l.255.261,25.621-6.878Z" transform="translate(-473.658 -159.018)"/><path class="d" d="M511.623,189.089l.26-.256-6.851-25.72-6.7,25.653,6.7,6.834V164.2Z" transform="translate(-472.67 -155.33)"/><path class="d" d="M469.965,199.266l24.794-6.617-.255-.261-25.621,6.878,25.554,6.722,6.807-6.722Z" transform="translate(-468.883 -158.996)"/><path class="d" d="M505.009,200.25v31.4l-6.592-24.889-.26.256,6.851,25.72,6.7-25.653Z" transform="translate(-472.647 -159.98)"/><path class="d" d="M510.667,154.948c-.411.178-.734-.178-1.133-.108-.762.135-1.243,2.3-1.408,2.929-.334,1.281-.513,2.486-.809,3.472a32.985,32.985,0,0,1-2-5.478c-.593,1.455-.578,3.691-1.513,4.936a1.8,1.8,0,0,1-1.837.65c-.366-.126-.771-.6-.431-.87.287-.225.673.4,1.081.435,1.042.086,1.442-1.726,1.676-2.6.315-1.19.568-2.437.755-3.415-1.088.131-2.434.427-2.322,1.68.037.443.445.576.215,1.031-.88.265-.821-.982-.648-1.52.44-1.374,2.132-1.43,3.456-1.68a51.557,51.557,0,0,0,1.569,4.99c.491-1.232.626-3.2,1.3-4.34a1.743,1.743,0,0,1,1.08-.812C510.276,154.15,510.922,154.269,510.667,154.948Z" transform="translate(-473.065 -154.216)"/><g transform="translate(74.388 26.669)"><path class="e" d="M555.617,207.312l1.318-1.953v-18.7l-1.318-1.954h5.058l-1.369,1.954v18.7l1.369,1.953Z" transform="translate(-554.423 -184.703)"/><path class="e" d="M577.514,191.438v18.3L570.3,193.5v12.9l1.1,1.561h-3.33l1.054-1.561V191.438l-1.054-1.56h3.079l5.182,11.892V191.438l-1.054-1.56h3.331Z" transform="translate(-556.024 -185.351)"/><path class="e" d="M592.653,191.348h-2.064V206.4l1.054,1.561h-4.048l1.1-1.561V191.348h-2.108l-1.39,2.084v-3.553h8.936v3.553Z" transform="translate(-558.226 -185.351)"/><path class="e" d="M600.523,207.96l1.054-1.561V191.438l-1.054-1.56h7.8v3.553l-1.432-2.084h-3.415v6.191h2.446l1.051-1.562v4.6l-1.051-1.566h-2.446v7.479h3.415l1.432-2.081v3.553Z" transform="translate(-560.197 -185.351)"/><path class="e" d="M624.565,199.711v7.146a4.42,4.42,0,0,1-3.667,1.316c-3.372,0-6.155-4.263-6.155-9.288s2.782-9.285,6.155-9.285a4.8,4.8,0,0,1,3.117,1.039v3.771l-1.727-2.487a1.523,1.523,0,0,0-1.39-.855c-2.4,0-3.795,4.047-3.795,7.816,0,3.741,1.392,7.816,3.795,7.816a2.2,2.2,0,0,0,1.77-.889v-6.1l-1.1-1.56h4.048Z" transform="translate(-562.025 -185.316)"/><path class="e" d="M639.543,207.96l-2.952-8.306H635.2V206.4l1.1,1.561h-4.048L633.3,206.4V191.438l-1.054-1.56h4.216c2.107,0,4.3,1.835,4.3,4.964a4.8,4.8,0,0,1-2.318,4.293l2.739,7.263,1.1,1.561Zm-3.076-16.612H635.2v6.838h1.265c1.18,0,2.107-1.6,2.107-3.344C638.574,193,637.69,191.348,636.467,191.348Z" transform="translate(-564.276 -185.351)"/><path class="e" d="M648.21,207.96l1.054-1.561V191.438l-1.054-1.56h4.048l-1.1,1.56V206.4l1.1,1.561Z" transform="translate(-566.329 -185.351)"/><path class="e" d="M665.587,191.348h-2.065V206.4l1.052,1.561h-4.045l1.1-1.561V191.348h-2.107l-1.392,2.084v-3.553h8.938v3.553Z" transform="translate(-567.603 -185.351)"/><path class="e" d="M681.727,191.438l-3.035,8.155V206.4l1.054,1.561H675.7l1.1-1.561v-6.836l-3.161-8.092-1.1-1.592h4.215L675.7,191.41l2.445,6.471,2.4-6.471-1.055-1.532h3.329Z" transform="translate(-569.457 -185.351)"/><g transform="translate(0 28.835)"><path class="e" d="M558.492,228.7l.642-.934-.489-2.19h-2.494l-.516,2.19.644.934h-2.032l.669-.972,2.417-10.067h.695l2.367,10.067.668.972Zm-1.081-8.438-1.054,4.415h2.057Z" transform="translate(-554.247 -217.665)"/><path class="e" d="M566.23,229.132a1.413,1.413,0,0,1-.453-.059l-1.274-.33.616-1.616.68,1.227a.676.676,0,0,0,.491.179c.8,0,1.051-1,1.051-1.557a1.8,1.8,0,0,0-.432-1.212l-1.461-1.3a2.86,2.86,0,0,1-.8-1.974c0-1.6.906-2.365,1.73-2.365a1.478,1.478,0,0,1,.494.06l1.193.328-.619,1.5-.617-1.108a.474.474,0,0,0-.39-.135c-.6,0-.926.644-.926,1.226a1.939,1.939,0,0,0,.639,1.437l1.441,1.3a2.119,2.119,0,0,1,.6,1.6C568.186,227.755,567.589,229.132,566.23,229.132Z" transform="translate(-555.566 -217.973)"/><path class="e" d="M572.8,229.132a1.4,1.4,0,0,1-.453-.059l-1.278-.33.619-1.616.678,1.227a.682.682,0,0,0,.495.179c.8,0,1.049-1,1.049-1.557a1.807,1.807,0,0,0-.43-1.212l-1.463-1.3a2.86,2.86,0,0,1-.8-1.974c0-1.6.905-2.365,1.729-2.365a1.47,1.47,0,0,1,.494.06l1.194.328-.618,1.5-.618-1.108a.474.474,0,0,0-.392-.135c-.6,0-.925.644-.925,1.226a1.936,1.936,0,0,0,.639,1.437l1.439,1.3a2.111,2.111,0,0,1,.6,1.6C574.749,227.755,574.152,229.132,572.8,229.132Z" transform="translate(-556.409 -217.973)"/><path class="e" d="M577.795,229.02l.515-.763v-7.3l-.515-.761H581.6v1.735l-.7-1.017h-1.667v3.022h1.193l.515-.763v2.246l-.515-.765h-1.193V228.3H580.9l.7-1.016v1.736Z" transform="translate(-557.275 -217.981)"/><path class="e" d="M588.285,220.909h-1.007v7.348l.514.763h-1.976l.536-.763v-7.348h-1.029l-.677,1.017v-1.735h4.361v1.735Z" transform="translate(-558.156 -217.981)"/><path class="e" d="M605.422,228.7l.642-.954V219.5l-2.367,6.138-2.39-6.138v8.251l.668.954h-2.033l.643-.954v-9.13l-.643-.954h2.11l2.007,5.257,2.005-5.257h1.8l-.643.954v9.13l.643.954Z" transform="translate(-560.122 -217.665)"/><path class="e" d="M615.045,229.02l.515-.747-.39-1.751h-2l-.412,1.751.516.747H611.65l.535-.778,1.935-8.051h.556l1.893,8.051.535.778Zm-.865-6.748-.843,3.531h1.645Z" transform="translate(-561.628 -217.981)"/><path class="e" d="M624.666,220.953v8.936l-3.519-7.931v6.3l.535.763h-1.627l.517-.763v-7.3l-.517-.761h1.5L624.091,226v-5.045l-.515-.761H625.2Z" transform="translate(-562.708 -217.981)"/><path class="e" d="M631.362,229.02l.515-.747-.391-1.751h-2l-.412,1.751.515.747h-1.625l.534-.778,1.935-8.051h.554l1.894,8.051.536.778Zm-.865-6.748-.844,3.531H631.3Z" transform="translate(-563.726 -217.981)"/><path class="e" d="M641.167,224.992v3.489a2.155,2.155,0,0,1-1.791.643c-1.645,0-3-2.081-3-4.535s1.359-4.533,3-4.533a2.35,2.35,0,0,1,1.523.507V222.4l-.843-1.214a.747.747,0,0,0-.681-.417c-1.174,0-1.853,1.976-1.853,3.817s.679,3.816,1.853,3.816a1.064,1.064,0,0,0,.863-.434v-2.979l-.533-.761h1.976Z" transform="translate(-564.806 -217.964)"/><path class="e" d="M644.921,229.02l.515-.763v-7.3l-.515-.761h3.806v1.735l-.7-1.017h-1.667v3.022h1.193l.515-.763v2.246l-.515-.765h-1.193V228.3h1.667l.7-1.016v1.736Z" transform="translate(-565.906 -217.981)"/><path class="e" d="M656.246,229.02l.513-.763v-6.6l-1.89,4.909-1.916-4.909v6.6l.535.763h-1.625l.514-.763v-7.3l-.514-.761h1.687l1.605,4.2,1.6-4.2H658.2l-.515.761v7.3l.515.763Z" transform="translate(-566.798 -217.981)"/><path class="e" d="M661.733,229.02l.515-.763v-7.3l-.515-.761h3.808v1.735l-.7-1.017h-1.668v3.022h1.193l.514-.763v2.246l-.514-.765h-1.193V228.3h1.668l.7-1.016v1.736Z" transform="translate(-568.067 -217.981)"/><path class="e" d="M673.286,220.953v8.936l-3.521-7.931v6.3l.535.763h-1.626l.516-.763v-7.3l-.516-.761h1.5L672.709,226v-5.045l-.514-.761h1.625Z" transform="translate(-568.96 -217.981)"/><path class="e" d="M680.677,220.909h-1.008v7.348l.514.763h-1.975l.535-.763v-7.348h-1.029l-.679,1.017v-1.735H681.4v1.735Z" transform="translate(-570.035 -217.981)"/></g></g></g></g></svg>