<svg xmlns="http://www.w3.org/2000/svg" xmlns:xlink="http://www.w3.org/1999/xlink" width="206.779" height="65.388" viewBox="0 0 206.779 65.388"><defs><style>.a{fill:none;}.b{clip-path:url(#a);}.c{fill:#fff;}.d{fill:#0e3354;}</style><clipPath id="a"><rect class="a" width="206.779" height="65.388"/></clipPath></defs><g class="b"><g transform="translate(0 0)"><ellipse class="c" cx="15.932" cy="16.046" rx="15.932" ry="16.046" transform="translate(6.372 6.251)"/><path class="a" d="M406,76.08H612.779l-.026,65.388-206.639-.141Z" transform="translate(-406 -76.08)"/><g transform="translate(6.403 6.297)"><path class="d" d="M451.6,122.947l-.025-1.408a17.561,17.561,0,0,0-2.478-.182h-.228l.007.586c.01,0-.1,15.7-.1,15.7.257.039.684.05.943.066l-.024-14.931A17.381,17.381,0,0,1,451.6,122.947Z" transform="translate(-434.619 -105.738)"/><path class="d" d="M441.432,123.106v-1.42a15.071,15.071,0,0,0-2.366.532v.986c.007-.006-.383,13.277-.383,13.277.225.106.591.243.851.352l.346-13.43A15.761,15.761,0,0,1,441.432,123.106Z" transform="translate(-429.377 -105.907)"/><path class="d" d="M432.949,126.23v-1.425a4.68,4.68,0,0,0-1.543,1.389c0,.217-.014,1.491-.015,1.742l-.251,7.84a9.173,9.173,0,0,0,.781.626l.315-9.66A4.614,4.614,0,0,1,432.949,126.23Z" transform="translate(-425.461 -107.517)"/><path class="d" d="M447.456,115.258A16.358,16.358,0,0,0,451.1,104.8a15.891,15.891,0,0,0-31.779-.021,15.7,15.7,0,0,0,3.486,10.317c0-.223.147-1.551.183-2.872a3.762,3.762,0,0,0-.063-.987,12.376,12.376,0,0,1-1.545-5.871c0-5.691,5.056-10.581,12.392-10.581,7.261,0,12.9,4.844,12.9,10.582a11.614,11.614,0,0,1-2.961,6.9l.419,6.061A14.85,14.85,0,0,0,447.456,115.258Z" transform="translate(-419.323 -89.089)"/><path class="d" d="M448.312,119.947c0,.021-.008.152-.008.2-.005.022-.014.156-.019.2,0,.02-.017.151-.022.2,0,.021-.059.338-.068.384,0,.018-.032.148-.043.191a.522.522,0,0,1-.014.055c-.006.029-.011.051-.015.07.094-.157.189-.32.279-.482a7.062,7.062,0,0,0,.171-1.564c0-4.836-4.862-8.758-10.863-8.758s-10.861,3.922-10.861,8.758a7.007,7.007,0,0,0,.171,1.564c.089.162.183.324.281.482-.006-.019-.01-.041-.018-.064a.515.515,0,0,1-.013-.061c-.012-.044-.039-.173-.046-.191-.009-.041-.062-.363-.063-.384-.007-.045-.021-.175-.022-.2-.006-.041-.015-.175-.02-.2,0-.046-.009-.177-.009-.2,0-.065,0-.129,0-.194,0-4.339,4.721-7.787,10.6-7.787,5.855,0,10.6,3.484,10.6,7.787C448.313,119.818,448.313,119.882,448.312,119.947Z" transform="translate(-423.231 -100.101)"/><path class="d" d="M436.8,106.631c6.138,0,11.168,3.831,11.607,8.691.022-.229.033-.457.033-.7,0-5.182-5.211-9.382-11.64-9.382-6.176,0-11.215,3.88-11.6,8.781.009.321.019.642.049.958C425.879,110.288,430.805,106.631,436.8,106.631Z" transform="translate(-422.373 -97.425)"/><path class="d" d="M460.128,124.582l-.028-1.414a11.16,11.16,0,0,0-2.043-.736s.011,1.376.011,1.38l.392,14.171c.278-.043.617-.14.863-.2l-.446-13.713A10.842,10.842,0,0,1,460.128,124.582Z" transform="translate(-439.441 -106.292)"/><path class="d" d="M466.493,128.468a2.948,2.948,0,0,1,.232.52,2.377,2.377,0,0,0-.089-1.587,3.6,3.6,0,0,0-.969-1.3l.012.746c.008.009.484,11.768.484,11.768.274-.129.6-.309.841-.449Z" transform="translate(-443.393 -108.186)"/></g><g transform="translate(48.953 12.018)"><path class="d" d="M530.7,126.01V127.1h10.563V126.01c-3.483-.322-3.6-.563-3.724-4.834l-.4-14.586c-.123-4.151.158-4.233,3.68-4.552v-1.129h-6.8L524.74,121.1l-9.082-20.189H509.1v1.129c3.64.362,3.841.522,3.481,5.762l-.561,8.381a67.1,67.1,0,0,1-.762,7.374c-.279,1.691-1.038,2.178-3.4,2.417V127.1h9.322v-1.127c-2.679-.284-3.6-.564-3.68-2.5-.039-1.61-.039-3.344.12-6.688l.56-11.485h.082l8.959,21.558h.84l9.764-22.122h.119l.161,16.44C534.1,125.447,533.982,125.688,530.7,126.01Z" transform="translate(-507.856 -100.909)"/><path class="d" d="M581.25,114.273v8.361c0,3.963.935,6.481,2.934,8.025a8.781,8.781,0,0,0,5.334,1.579,8.3,8.3,0,0,0,6-2.316c1.9-2.014,2.5-4.9,2.5-8.866v-2.72a50.61,50.61,0,0,1,.2-5.475c.134-1.409.9-1.846,2.9-1.98v-.939h-7.935v.939c2.367.169,3.069.571,3.235,1.882a43.213,43.213,0,0,1,.236,5.538v2.519c0,5.541-1.5,9.6-6.3,9.6-4.132,0-6.267-3.09-6.267-8.529v-7.622c0-3.022.267-3.223,2.869-3.393v-.939h-8.6v.939C580.952,111.116,581.25,111.251,581.25,114.273Z" transform="translate(-544.469 -105.57)"/><path class="d" d="M633.591,128.578c-.1-.974-.2-2.587-.2-5.675v-8.43h.067l14.2,17.594H648.7V118.537a47.884,47.884,0,0,1,.2-5.676c.133-1.443.934-1.879,2.8-1.98v-.939h-7.868v.939c2.336.135,3.1.571,3.268,2.084a42.258,42.258,0,0,1,.234,5.572v8.227h-.1l-13.939-16.822h-4.9v.939c1.569.135,2.27.4,2.97,1.244.6.805.668.939.668,3.39v7.39c0,3.054-.1,4.7-.2,5.742-.167,1.645-1.033,2.047-2.933,2.181v.941h7.9v-.941C634.523,130.693,633.757,130.291,633.591,128.578Z" transform="translate(-570.459 -105.57)"/><path class="d" d="M697.832,128.982a10.784,10.784,0,0,0,4.1-8.967,9.82,9.82,0,0,0-2.834-7.22c-2.069-2.014-5.17-2.852-9.4-2.852h-9.334v.939c2.566.2,2.835.336,2.835,3.223v13.5c0,2.853-.269,3.054-3.135,3.255v.907h7.868C692,131.767,695.331,130.928,697.832,128.982Zm-11.8-1.613V113.4c0-1.345.134-1.714.434-1.914a4.923,4.923,0,0,1,2.6-.436,10.6,10.6,0,0,1,5.666,1.375c2.669,1.579,3.935,4.6,3.935,8.06,0,5.372-2.9,10.075-9.1,10.075C687.127,130.56,686.029,129.921,686.029,127.369Z" transform="translate(-597.297 -105.57)"/><path class="d" d="M743.888,126.463l-.966-.135a10.438,10.438,0,0,1-1.666,3.157c-.734.871-1.668,1.141-4.2,1.141-1.667,0-2.833,0-3.467-.436-.6-.4-.8-1.142-.8-2.719v-6.346h3.166c2.9,0,3.133.2,3.569,2.585h.966V117.3h-.966c-.4,2.248-.567,2.517-3.6,2.517h-3.133v-7.656c0-.972.066-1.074,1.1-1.074h2.535c2.4,0,3.3.234,3.768.972a8.274,8.274,0,0,1,1.066,2.855l.966-.134c-.1-1.746-.265-4.029-.265-4.835h-14.87v.906c2.6.235,2.867.369,2.867,3.358v13.365c0,2.752-.265,3.021-3.3,3.255v.941h16.071C743.023,130.726,743.689,127.571,743.888,126.463Z" transform="translate(-621.496 -105.57)"/><path class="d" d="M785.688,133.546a26.062,26.062,0,0,1-2.7-3.491c-.112-.174-.237-.362-.361-.553-.671-1.033-1.436-2.26-2.006-3.229-.045-.062-.081-.117-.126-.18-.166-.251-.345-.526-.526-.808-.917-1.42-1.968-3.131-2.44-4.027,2.432-1.108,4.233-2.888,4.233-5.777a4.984,4.984,0,0,0-2.235-4.4c-1.233-.84-2.863-1.141-5.3-1.141h-8.269v.939c2.6.236,2.868.336,2.868,3.223v13.467c0,2.854-.265,3.054-3,3.255v.941h8.736v-.941c-2.634-.2-2.935-.436-2.935-3.255v-14.71c0-.9.1-1.306.367-1.476a3.271,3.271,0,0,1,1.8-.334c2.5,0,4.867,1.342,4.867,4.968a4.791,4.791,0,0,1-1.833,4.165,5.172,5.172,0,0,1-3.493.972l-.262,1.086a2.489,2.489,0,0,1,2.456,1.335c.939,1.547,2.054,3.466,3.155,5.059.848,1.411,1.787,2.975,2.706,4.275a6.039,6.039,0,0,0,5.4,3.054c.367.034.766.034,1.167.034l.133-.873A4.6,4.6,0,0,1,785.688,133.546Z" transform="translate(-641.841 -105.57)"/></g><g transform="translate(73.14 44.8)"><path class="d" d="M558.182,175.954a4.021,4.021,0,0,0,4.317,4.3,11.912,11.912,0,0,0,2.549-.357,16.905,16.905,0,0,0,1.174-2.257l-.384-.211c-.833,1.3-1.693,2.317-3.19,2.317-1.99,0-3.028-1.7-3.028-3.839,0-2.762,1.767-5.291,4.363-5.291,1.48,0,2.255.526,2.327,2.3l.445-.045c.06-.716.074-1.524.12-2.286a7.043,7.043,0,0,0-2.553-.478C560.909,170.113,558.182,172.4,558.182,175.954Z" transform="translate(-558.182 -169.397)"/><path class="d" d="M583.127,182.114l-.181-.374a3.283,3.283,0,0,1-1.084.791c-.072,0-.118-.133-.027-.64.342-1.9.785-3.928,1.024-4.841l-.029-.058a2.82,2.82,0,0,1-.566-.09,4,4,0,0,0-.919-.121h-.016a4.75,4.75,0,0,0-2.76,1.152,5.525,5.525,0,0,0-1.78,4.049c0,1.195.475,1.674.862,1.674a2.462,2.462,0,0,0,1.379-.674,9.782,9.782,0,0,0,1.913-2.064h.046l-.3,1.421c-.224,1.091-.03,1.316.251,1.316A4.172,4.172,0,0,0,583.127,182.114Zm-1.944-2.331c-.489,1.032-2.18,2.913-2.759,2.913-.224,0-.4-.313-.4-.971a5.266,5.266,0,0,1,1.6-3.972,1.868,1.868,0,0,1,1.069-.316h.014a2.379,2.379,0,0,1,.965.21C581.584,178.127,581.36,179.2,581.183,179.783Z" transform="translate(-567.847 -172.836)"/><path class="d" d="M593.028,175.667a4.981,4.981,0,0,0-1.378.194l.251-1.15-.136-.088a4.706,4.706,0,0,0-1.08.864l-.163.69a6.676,6.676,0,0,0-1.424.733l.1.387a6.661,6.661,0,0,1,1.2-.553c-.55,2.569-1.114,5.169-1.662,7.782-.209.913-.371,1.033-1.305,1.226l-.06.373,3.427-.165.06-.4-.372-.03c-.728-.076-.816-.2-.638-1.063l.417-2.076a2.366,2.366,0,0,0,.872.153,5.867,5.867,0,0,0,2.761-1.736,4.765,4.765,0,0,0,1.26-3.077C595.162,176.414,594.555,175.667,593.028,175.667Zm-1.6,6.217a1.3,1.3,0,0,1-.934-.51l1.023-4.96a4.661,4.661,0,0,1,.844-.106h.031c.83,0,1.528.331,1.528,1.66C593.918,179.882,592.479,181.884,591.425,181.884Z" transform="translate(-573.345 -171.723)"/><path class="d" d="M609.577,170.55h-.013a.859.859,0,0,0-.788.88.619.619,0,0,0,.624.657.807.807,0,0,0,.769-.863A.607.607,0,0,0,609.577,170.55Z" transform="translate(-584.46 -169.622)"/><path class="d" d="M606.2,182.547c-.088,0-.117-.12-.027-.477l1.022-4.108c.178-.7.178-1.183-.149-1.183a4.977,4.977,0,0,0-2.254,1.421l.178.343a2.76,2.76,0,0,1,1.023-.644c.09.016.09.151,0,.479l-.918,3.808c-.3,1.228-.091,1.469.207,1.469a4.712,4.712,0,0,0,2.165-1.48l-.192-.332A3.029,3.029,0,0,1,606.2,182.547Z" transform="translate(-582.389 -172.836)"/><path class="d" d="M613.688,180.4c-.163,0-.252-.165-.089-.9l.86-4.078,1.484-.06.387-.524h-1.737l.534-2.24-.148-.105-1.112.941-.342,1.4h-.9l-.371.463.044.135h1.1l-.862,4.035c-.339,1.538-.043,1.974.3,1.974.791,0,1.913-1,2.4-1.585l-.223-.33A3.235,3.235,0,0,1,613.688,180.4Z" transform="translate(-586.264 -170.624)"/><path class="d" d="M625.22,182.531c-.075,0-.119-.133-.027-.64.338-1.9.784-3.928,1.022-4.841l-.031-.058a2.8,2.8,0,0,1-.564-.09,4,4,0,0,0-.918-.121h-.016a4.747,4.747,0,0,0-2.759,1.152,5.521,5.521,0,0,0-1.78,4.049c0,1.195.474,1.674.86,1.674a2.471,2.471,0,0,0,1.381-.674,9.887,9.887,0,0,0,1.915-2.064h.042l-.3,1.421c-.222,1.091-.029,1.316.255,1.316a4.167,4.167,0,0,0,2.178-1.541l-.178-.374A3.354,3.354,0,0,1,625.22,182.531Zm-.683-2.748c-.49,1.032-2.181,2.913-2.758,2.913-.225,0-.4-.313-.4-.971a5.263,5.263,0,0,1,1.6-3.972,1.86,1.86,0,0,1,1.066-.316h.017a2.366,2.366,0,0,1,.962.21C624.937,178.127,624.716,179.2,624.537,179.783Z" transform="translate(-590.365 -172.836)"/><path class="d" d="M637.853,168.633a14.271,14.271,0,0,1-2.2.523l-.059.377h.414c.667.012.758.1.61.758q-.759,3.676-1.542,7.349c-.315,1.468-.076,1.812.222,1.812a4.3,4.3,0,0,0,2.268-1.6l-.221-.329a3.089,3.089,0,0,1-1.173.822c-.087,0-.147-.089-.061-.523q.916-4.412,1.828-8.74C638,168.766,637.986,168.633,637.853,168.633Z" transform="translate(-598.044 -168.633)"/><path class="d" d="M659.16,172.385c.2-1.24.224-1.3,1.516-1.4l.1-.4h-2.4l-4.628,7.483c-.595-2.674-1.114-5.035-1.619-7.483h-2.462l-.1.4c1.4.135,1.485.24,1.055,1.719l-.833,2.837c-.549,1.913-.828,2.794-1.066,3.423s-.536.837-1.4.909l-.1.406h3.351l.089-.406c-1.1-.1-1.232-.283-1.128-.94a25.105,25.105,0,0,1,.7-2.865l1.067-3.93h.03c.564,2.852,1.039,5.409,1.514,8.082h.341l4.91-8.248h.03c-.326,2.108-.654,4.081-.98,6.292-.21,1.434-.3,1.492-1.44,1.609l-.1.406h3.755l.1-.406c-1.185-.117-1.289-.145-1.1-1.609C658.614,176.285,658.835,174.538,659.16,172.385Z" transform="translate(-604.428 -169.637)"/><path class="d" d="M679.383,182.531c-.073,0-.118-.133-.03-.64.343-1.9.784-3.928,1.022-4.841l-.027-.058a2.834,2.834,0,0,1-.565-.09,4.021,4.021,0,0,0-.92-.121h-.013a4.744,4.744,0,0,0-2.761,1.152,5.522,5.522,0,0,0-1.778,4.049c0,1.195.475,1.674.858,1.674a2.473,2.473,0,0,0,1.383-.674,9.9,9.9,0,0,0,1.911-2.064h.045l-.3,1.421c-.223,1.091-.03,1.316.252,1.316a4.161,4.161,0,0,0,2.181-1.541l-.178-.374A3.322,3.322,0,0,1,679.383,182.531Zm-.683-2.748c-.489,1.032-2.18,2.913-2.759,2.913-.221,0-.4-.313-.4-.971a5.262,5.262,0,0,1,1.6-3.972,1.851,1.851,0,0,1,1.066-.316h.017a2.372,2.372,0,0,1,.962.21C679.1,178.127,678.878,179.2,678.7,179.783Z" transform="translate(-618.498 -172.836)"/><path class="d" d="M694.388,182.531c-.105,0-.119-.118-.03-.523.237-1.043.49-2.075.726-3.091.447-1.911.031-2.137-.342-2.137a1.9,1.9,0,0,0-.979.343,9.828,9.828,0,0,0-2.728,2.6h-.029l.31-1.282c.267-1.153.21-1.662-.117-1.662a4.181,4.181,0,0,0-2.092,1.421l.207.357a2.778,2.778,0,0,1,.951-.672c.09,0,.133.121.031.6-.372,1.643-.8,3.436-1.219,5.049l.088.105a7.492,7.492,0,0,1,1.071-.283c.178-.9.4-1.792.577-2.512.74-1.267,2.462-3.1,3.115-3.1.222,0,.311.21.1,1.06-.251,1.093-.506,2.2-.773,3.3-.279,1.151-.13,1.556.223,1.556a3.966,3.966,0,0,0,2.092-1.439l-.223-.373A2.339,2.339,0,0,1,694.388,182.531Z" transform="translate(-626.166 -172.836)"/><path class="d" d="M710.4,182.114l-.179-.374a3.312,3.312,0,0,1-1.081.791c-.074,0-.118-.133-.03-.64.34-1.9.788-3.928,1.024-4.841l-.029-.058a2.787,2.787,0,0,1-.564-.09,4.014,4.014,0,0,0-.92-.121h-.014a4.75,4.75,0,0,0-2.762,1.152,5.523,5.523,0,0,0-1.78,4.049c0,1.195.477,1.674.861,1.674a2.472,2.472,0,0,0,1.38-.674,9.82,9.82,0,0,0,1.913-2.064h.044l-.3,1.421c-.221,1.091-.03,1.316.253,1.316A4.166,4.166,0,0,0,710.4,182.114Zm-1.945-2.331c-.488,1.032-2.181,2.913-2.757,2.913-.223,0-.4-.313-.4-.971a5.266,5.266,0,0,1,1.6-3.972,1.87,1.87,0,0,1,1.068-.316h.014a2.382,2.382,0,0,1,.966.21C708.86,178.127,708.636,179.2,708.457,179.783Z" transform="translate(-633.953 -172.836)"/><path class="d" d="M718.78,181.843a4.26,4.26,0,0,0,1.918-.878,2.967,2.967,0,0,0,1.126-2.287,2.577,2.577,0,0,0-.118-.822c.162-.014.268-.031.385-.045a1.96,1.96,0,0,0,1.055-.675l-.106-.283a3.879,3.879,0,0,1-1.675.33,2.014,2.014,0,0,0-1.262-.4,3.266,3.266,0,0,0-1.9.748,3.227,3.227,0,0,0-1.245,2.494,1.634,1.634,0,0,0,1.3,1.809c-.713.417-.919.686-.919.925-.015.195.194.493.55.732-1.633.835-2.462,1.508-2.492,2.15-.032.927,1.215,1.675,2.655,1.675,1.425,0,3.5-.913,3.5-2.137,0-.641-.579-1.24-2-1.988-.7-.372-1.067-.642-1.067-.866A.776.776,0,0,1,718.78,181.843Zm.612,2.543c.681.4,1.083.791,1.083,1.193,0,.585-.712,1.108-1.824,1.108h-.016c-1.022,0-1.987-.554-1.987-1.3,0-.554.653-1.151,1.633-1.629C718.5,183.861,718.9,184.1,719.392,184.386ZM718.1,179.9a3.414,3.414,0,0,1,.565-1.94,1.337,1.337,0,0,1,1.068-.661h.016c.635,0,.979.6.979,1.435,0,1.614-.891,2.51-1.676,2.51C718.517,181.247,718.1,180.784,718.1,179.9Z" transform="translate(-639.84 -172.836)"/><path class="d" d="M751.777,182.547c-.09,0-.118-.12-.029-.494l.726-3.1c.459-1.989-.014-2.169-.326-2.169a1.891,1.891,0,0,0-.89.286,8.77,8.77,0,0,0-2.732,2.6H748.5l.133-.616c.429-1.894.059-2.27-.357-2.27a1.719,1.719,0,0,0-.9.315,8.925,8.925,0,0,0-2.668,2.586h-.031l.268-1.047c.31-1.3.251-1.854-.12-1.854a4.2,4.2,0,0,0-2.091,1.435l.176.372a3.194,3.194,0,0,1,1.026-.731c.089.015.132.091.015.627-.373,1.687-.787,3.378-1.231,5.065l.1.089a5.478,5.478,0,0,1,1.068-.253c.178-.9.4-1.9.609-2.569.476-.957,2.27-3.091,3-3.091.3,0,.327.354.117,1.359-.311,1.446-.7,2.958-1.067,4.466l.088.089a5.4,5.4,0,0,1,1.081-.253c.165-.866.4-1.852.581-2.569.518-.987,2.314-3.091,3.025-3.091.221,0,.312.239.135.955l-.787,3.45c-.267,1.092-.135,1.527.222,1.527a4.093,4.093,0,0,0,2.094-1.439l-.2-.355A2.781,2.781,0,0,1,751.777,182.547Z" transform="translate(-654.026 -172.836)"/><path class="d" d="M782.9,182.531c-.1,0-.118-.118-.031-.523.238-1.043.489-2.075.728-3.091.445-1.911.027-2.137-.341-2.137a1.889,1.889,0,0,0-.98.343,9.8,9.8,0,0,0-2.728,2.6h-.029l.311-1.282c.264-1.153.208-1.662-.119-1.662a4.2,4.2,0,0,0-2.092,1.421l.211.357a2.721,2.721,0,0,1,.946-.672c.088,0,.132.121.031.6-.37,1.643-.8,3.436-1.217,5.049l.089.105a7.29,7.29,0,0,1,1.068-.283c.176-.9.4-1.792.576-2.512.744-1.267,2.463-3.1,3.115-3.1.221,0,.313.21.107,1.06-.253,1.093-.507,2.2-.773,3.3-.284,1.151-.136,1.556.225,1.556a3.984,3.984,0,0,0,2.09-1.439l-.224-.373A2.347,2.347,0,0,1,782.9,182.531Z" transform="translate(-672.141 -172.836)"/><path class="d" d="M795.683,172.6l-.148-.105-1.112.941-.34,1.4h-.9l-.369.463.043.135h1.1l-.86,4.035c-.342,1.538-.044,1.974.3,1.974.785,0,1.914-1,2.4-1.585l-.221-.33a3.271,3.271,0,0,1-1.324.868c-.161,0-.251-.165-.088-.9l.86-4.078,1.485-.06.385-.524h-1.736Z" transform="translate(-680.044 -170.624)"/><path class="d" d="M735.683,178a1.224,1.224,0,0,0-1.289-1.21,3.607,3.607,0,0,0-2.047.853,4.966,4.966,0,0,0-1.8,3.837c0,1.78.948,2.185,1.647,2.185a4.311,4.311,0,0,0,3.116-1.691l-.239-.327a3.563,3.563,0,0,1-2.181,1.136c-.9,0-1.143-.867-1.143-1.675,0-.149,0-.3.014-.477C733.208,180.267,735.683,179.461,735.683,178Zm-2.461-.417a1.228,1.228,0,0,1,.623-.164h.014a.725.725,0,0,1,.728.806c0,.7-.638,1.373-2.76,1.943A3.523,3.523,0,0,1,733.222,177.58Z" transform="translate(-647.709 -172.84)"/><path class="d" d="M770.954,177.99a1.224,1.224,0,0,0-1.289-1.21,3.607,3.607,0,0,0-2.047.853,4.967,4.967,0,0,0-1.8,3.838c0,1.779.948,2.186,1.647,2.186a4.31,4.31,0,0,0,3.116-1.692l-.238-.326a3.562,3.562,0,0,1-2.181,1.136c-.9,0-1.143-.868-1.143-1.675,0-.149,0-.3.014-.477C768.479,180.261,770.954,179.454,770.954,177.99Zm-2.461-.417a1.238,1.238,0,0,1,.623-.164h.014a.725.725,0,0,1,.727.806c0,.7-.638,1.374-2.76,1.943A3.525,3.525,0,0,1,768.493,177.573Z" transform="translate(-666.028 -172.836)"/></g></g><g transform="translate(197.498 38.486)"><path class="d" d="M822.776,158.452a2.923,2.923,0,1,1-2.914-2.864A2.869,2.869,0,0,1,822.776,158.452Zm-5.116,0a2.211,2.211,0,0,0,2.22,2.288,2.186,2.186,0,0,0,2.167-2.271,2.2,2.2,0,1,0-4.387-.017Zm1.751,1.5h-.658v-2.864a5.633,5.633,0,0,1,1.092-.088,1.775,1.775,0,0,1,.989.209.8.8,0,0,1,.277.629.732.732,0,0,1-.589.664v.035a.842.842,0,0,1,.52.7,2.237,2.237,0,0,0,.208.717h-.711a2.468,2.468,0,0,1-.225-.7c-.053-.315-.226-.455-.59-.455h-.312Zm.017-1.625h.313c.363,0,.658-.122.658-.419,0-.261-.19-.437-.607-.437a1.511,1.511,0,0,0-.364.036Z" transform="translate(-816.932 -155.588)"/></g></g></svg>