<svg xmlns="http://www.w3.org/2000/svg" xmlns:xlink="http://www.w3.org/1999/xlink" width="156.451" height="69.467" viewBox="0 0 156.451 69.467"><defs><style>.a{fill:#58595b;}.b{fill:url(#a);}.c{fill:url(#b);}.d{fill:url(#c);}.e{fill:url(#d);}.f{fill:url(#e);}.g{fill:none;}.h{fill:#88898b;}.i{fill:#676869;}.j{fill:#717374;}.k{fill:#7f8082;}.l{fill:url(#f);}.m{fill:url(#g);}.n{fill:#909192;}.o{fill:#828385;}.p{fill:#6d6f70;}.q{fill:url(#h);}.r{fill:url(#i);}.s{fill:#78797b;}.t{fill:url(#j);}.u{fill:#717274;}.v{fill:#7d7e80;}.w{fill:#969798;}.x{fill:url(#k);}.y{fill:#8a8b8c;}.z{fill:#797a7c;}.aa{fill:#9c9d9e;}.ab{fill:url(#l);}.ac{fill:#a4a5a7;}.ad{fill:#838486;}.ae{fill:#8e8f91;}.af{fill:#7e7f81;}.ag{fill:#9d9ea0;}.ah{fill:#8b8c8d;}.ai{fill:#97989a;}.aj{fill:#34b393;}.ak{fill:url(#m);}.al{fill:#3fb487;}.am{fill:#26b2a1;}.an{fill:#1ab2ab;}.ao{fill:#2b664a;}.ap{fill:#286a55;}.aq{fill:#236f60;}.ar{fill:#1e726d;}.as{fill:#2bb39a;}.at{fill:url(#n);}.au{fill:#0ab0b3;}.av{fill:#39b38d;}.aw{fill:#1cb1a7;}.ax{fill:#43b483;}.ay{fill:#295e42;}.az{fill:#276249;}.ba{fill:#246654;}.bb{fill:#1f6a61;}.bc{fill:#1a6d6c;}.bd{fill:url(#o);}.be{fill:#3eb489;}.bf{fill:#33b393;}.bg{fill:#47b480;}.bh{fill:#27b2a1;}.bi{fill:url(#p);}.bj{fill:#265739;}.bk{fill:#255a42;}.bl{fill:#225e4c;}.bm{fill:#1f6155;}.bn{fill:#1b6662;}.bo{fill:#4db57a;}.bp{fill:#39b48e;}.bq{fill:url(#q);}.br{fill:#2db39a;}.bs{fill:url(#r);}.bt{fill:#254e33;}.bu{fill:#225139;}.bv{fill:#225641;}.bw{fill:#1f594a;}.bx{fill:#1b5e56;}.by{fill:url(#s);}.bz{fill:url(#t);}.ca{fill:#34b394;}.cb{fill:#50b575;}.cc{fill:#48b47e;}.cd{fill:#3fb488;}.ce{fill:#22452b;}.cf{fill:#214b32;}.cg{fill:#204c37;}.ch{fill:#1e5142;}.ci{fill:#1b564b;}.cj{fill:#59595b;}</style><linearGradient id="a" x1="-324.44" y1="613.147" x2="-297.724" y2="531.761" gradientUnits="objectBoundingBox"><stop offset="0" stop-color="#e4e5e6"/><stop offset="1" stop-color="#58595b"/></linearGradient><linearGradient id="b" x1="59.183" y1="-338.205" x2="113.107" y2="-338.205" gradientUnits="objectBoundingBox"><stop offset="0" stop-color="#00aee9"/><stop offset="0.014" stop-color="#02aee6"/><stop offset="0.249" stop-color="#25b1b6"/><stop offset="0.473" stop-color="#40b390"/><stop offset="0.679" stop-color="#54b575"/><stop offset="0.861" stop-color="#60b665"/><stop offset="1" stop-color="#64b65f"/></linearGradient><linearGradient id="c" x1="68.384" y1="-407.475" x2="132.829" y2="-407.475" xlink:href="#b"/><linearGradient id="d" x1="-157.554" y1="301.302" x2="-143.974" y2="260.023" xlink:href="#a"/><linearGradient id="e" x1="30.082" y1="-173.383" x2="57.492" y2="-173.383" xlink:href="#b"/><linearGradient id="f" x1="-171.742" y1="302.431" x2="-158.219" y2="261.152" xlink:href="#a"/><linearGradient id="g" x1="0.045" y1="0.093" x2="0.933" y2="0.926" gradientUnits="objectBoundingBox"><stop offset="0" stop-color="#c4c5c6"/><stop offset="1" stop-color="#949596"/></linearGradient><linearGradient id="h" x1="-168.731" y1="301.067" x2="-155.152" y2="259.937" xlink:href="#a"/><linearGradient id="i" x1="0.038" y1="0.156" x2="0.911" y2="0.91" gradientUnits="objectBoundingBox"><stop offset="0" stop-color="#babbbd"/><stop offset="1" stop-color="#9a9b9d"/></linearGradient><linearGradient id="j" x1="0.098" y1="0.287" x2="0.855" y2="0.902" gradientUnits="objectBoundingBox"><stop offset="0" stop-color="#b0b1b3"/><stop offset="1" stop-color="#9f9fa1"/></linearGradient><linearGradient id="k" x1="-164.662" y1="301.866" x2="-151.111" y2="260.588" xlink:href="#a"/><linearGradient id="l" x1="-161.617" y1="302.671" x2="-148.009" y2="261.244" xlink:href="#a"/><linearGradient id="m" x1="60.401" y1="-347.355" x2="116.382" y2="-347.355" xlink:href="#b"/><linearGradient id="n" x1="28.145" y1="-170.262" x2="55.611" y2="-170.262" xlink:href="#b"/><linearGradient id="o" x1="0.118" y1="0.623" x2="0.845" y2="0.115" gradientUnits="objectBoundingBox"><stop offset="0" stop-color="#00b0c4"/><stop offset="1" stop-color="#1ab2ab"/></linearGradient><linearGradient id="p" x1="26.147" y1="-168.187" x2="53.613" y2="-168.187" xlink:href="#b"/><linearGradient id="q" x1="0.042" y1="0.84" x2="0.928" y2="0.072" gradientUnits="objectBoundingBox"><stop offset="0" stop-color="#00aee9"/><stop offset="1" stop-color="#1fb2a6"/></linearGradient><linearGradient id="r" x1="24.051" y1="-166.126" x2="51.404" y2="-166.126" xlink:href="#b"/><linearGradient id="s" x1="22.016" y1="-164.079" x2="49.312" y2="-164.079" xlink:href="#b"/><linearGradient id="t" x1="0.028" y1="0.873" x2="0.958" y2="0.056" gradientUnits="objectBoundingBox"><stop offset="0" stop-color="#00aede"/><stop offset="1" stop-color="#28b29f"/></linearGradient></defs><g transform="translate(0.028 48.594)"><path class="a" d="M.06,103H1.15v20.561H.06Z" transform="translate(-0.06 -103)"/><path class="a" d="M13.84,115.321h1.033v2.463c1.373-1.241,3.42-2.774,5.86-2.774,3.109,0,4.458,1.665,4.458,4.444V129.9h-1.01V119.534c0-2.416-1.095-3.6-3.524-3.6-2.161,0-4.034,1.184-5.779,2.854V129.9H13.845V115.321Z" transform="translate(-7.339 -109.344)"/><path class="a" d="M43.7,115.67h1.123l4.987,13.394,4.93-13.394h1.09l-5.52,14.663H49.248Z" transform="translate(-23.111 -109.692)"/><path class="a" d="M73.92,122.62c0-5.128,3.114-7.61,6.162-7.61,3.307,0,5.746,2.7,5.746,7.426v.127H74.958v.179c0,3.713,2.048,6.544,5.1,6.544,2.316,0,3.779-1.335,4.959-3.166l.755.5a6.575,6.575,0,0,1-5.746,3.586C76.439,130.211,73.92,126.984,73.92,122.62Zm10.842-.911c-.193-3.505-1.934-5.775-4.68-5.775-2.406,0-4.789,1.882-5.1,5.775Z" transform="translate(-39.073 -109.344)"/><path class="a" d="M104.98,127.527l.783-.59a5.446,5.446,0,0,0,4.652,2.364c2.831,0,4.454-1.189,4.454-3.133,0-1.977-1.6-2.784-4.6-3.538-3.364-.882-4.878-1.746-4.878-4.076,0-1.84,1.651-3.534,4.737-3.534a6.68,6.68,0,0,1,5.157,2.166l-.76.689a5.457,5.457,0,0,0-4.425-1.93c-2.581,0-3.671,1.269-3.671,2.576,0,1.779,1.4,2.449,3.977,3.109,3.586.972,5.459,1.864,5.459,4.534,0,2.5-2.213,4.057-5.459,4.057A6.439,6.439,0,0,1,104.98,127.527Z" transform="translate(-55.48 -109.349)"/><path class="a" d="M135.351,121.088V110.681H132.78v-.948h2.571V104.42h1.038v5.312h3.977v.948h-3.977v10.356c0,1.614.533,2.534,2.463,2.534a5.658,5.658,0,0,0,1.566-.2v.972a10.816,10.816,0,0,1-1.68.17C136.309,124.509,135.351,123.424,135.351,121.088Z" transform="translate(-70.164 -103.75)"/><path class="a" d="M156.82,115.321h1.033v2.463c1.373-1.241,3.364-2.774,5.657-2.774,2.416,0,3.675,1.142,4.09,2.859,1.684-1.463,3.647-2.859,5.831-2.859,2.968,0,4.256,1.665,4.256,4.444V129.9h-1V119.534c0-2.416-1.01-3.6-3.336-3.6-2.024,0-3.845,1.184-5.6,2.878a6.527,6.527,0,0,1,.028.755V129.9h-1.038V119.53c0-2.416-.981-3.6-3.3-3.6-2.048,0-3.845,1.184-5.581,2.854V129.9H156.82Z" transform="translate(-82.862 -109.344)"/><path class="a" d="M209.08,122.62c0-5.128,3.109-7.61,6.166-7.61,3.3,0,5.746,2.7,5.746,7.426v.127H210.118v.179c0,3.713,2.048,6.544,5.1,6.544,2.321,0,3.784-1.335,4.959-3.166l.755.5a6.57,6.57,0,0,1-5.746,3.586C211.6,130.211,209.08,126.984,209.08,122.62Zm10.842-.911c-.2-3.505-1.93-5.775-4.675-5.775-2.416,0-4.789,1.882-5.1,5.775Z" transform="translate(-110.466 -109.344)"/><path class="a" d="M242.7,115.321h1.038v2.463c1.373-1.241,3.42-2.774,5.855-2.774,3.109,0,4.454,1.665,4.454,4.444V129.9h-1V119.534c0-2.416-1.095-3.6-3.534-3.6-2.151,0-4.029,1.184-5.77,2.854V129.9H242.7V115.321Z" transform="translate(-128.225 -109.344)"/><path class="a" d="M275.5,121.088V110.681H272.92v-.948H275.5V104.42h1.033v5.312h3.982v.948h-3.982v10.356c0,1.614.533,2.534,2.467,2.534a5.7,5.7,0,0,0,1.576-.2v.972a10.817,10.817,0,0,1-1.68.17C276.454,124.509,275.5,123.424,275.5,121.088Z" transform="translate(-144.187 -103.75)"/><path class="a" d="M294.58,127.527l.793-.59a5.437,5.437,0,0,0,4.647,2.364c2.826,0,4.454-1.189,4.454-3.133,0-1.977-1.6-2.784-4.6-3.538-3.369-.882-4.874-1.746-4.874-4.076,0-1.84,1.651-3.534,4.737-3.534a6.661,6.661,0,0,1,5.152,2.166l-.75.689a5.48,5.48,0,0,0-4.43-1.93c-2.581,0-3.671,1.269-3.671,2.576,0,1.779,1.406,2.449,3.982,3.109,3.586.972,5.463,1.864,5.463,4.534,0,2.5-2.217,4.057-5.463,4.057A6.454,6.454,0,0,1,294.58,127.527Z" transform="translate(-155.628 -109.349)"/></g><g transform="translate(0 16.9)"><path class="a" d="M0,36.62H7.794c5.1,0,8.153,1.812,8.153,6.364a5.506,5.506,0,0,1-4.322,5.869l4.628,8.332H11.432L7.119,49.429H4.482v7.756H0Zm7.591,9.318c2.633,0,3.9-.75,3.9-2.84,0-2.024-1.264-2.779-3.9-2.779H4.482v5.619Z" transform="translate(0 -36.243)"/><path class="a" d="M39.5,52.1l3.444-2.029a6.158,6.158,0,0,0,5.6,3.5c2.1,0,3.609-.778,3.609-2.359,0-1.552-1.481-2.222-4.2-2.972C44.26,47.209,40.4,46.265,40.4,41.953c0-3.836,3.019-6.133,7.478-6.133a9.325,9.325,0,0,1,8.237,4.218l-3.166,2.4a6.179,6.179,0,0,0-5.1-2.916c-1.93,0-3,.83-3,2.052,0,1.647,1.543,2.222,4.265,2.972,3.642.977,7.506,2.118,7.506,6.364,0,3.3-2.524,6.251-8.294,6.251C43.836,57.154,41.033,55.041,39.5,52.1Z" transform="translate(-20.864 -35.82)"/></g><path class="b" d="M127.266,26.925l-1.151-.665h0Z" transform="translate(-66.612 -13.871)"/><path class="c" d="M127.266,26.925l-1.151-.665h0Z" transform="translate(-66.612 -13.871)"/><path class="d" d="M130.925,72.787l.962-.557-.967.557Z" transform="translate(-69.153 -38.153)"/><path class="e" d="M126.11,74.717l0,0,2.269-1.312h0Z" transform="translate(-66.612 -38.776)"/><path class="f" d="M126.11,74.717l0,0,2.269-1.312h0Z" transform="translate(-66.612 -38.776)"/><path class="g" d="M106.634,44.212,104.365,42.9,102.1,44.212l2.265,1.307Z" transform="translate(-53.93 -22.66)"/><path class="g" d="M121.31,55.307l2.269,1.312,2.265-1.312L123.579,54Z" transform="translate(-64.077 -28.523)"/><path class="g" d="M142.8,45.518l2.265-1.307L142.8,42.9l-2.269,1.307Z" transform="translate(-74.229 -22.66)"/><path class="g" d="M104.369,54,102.1,55.307l2.269,1.307,2.265-1.307Z" transform="translate(-53.93 -28.523)"/><path class="g" d="M125.854,33.117l-2.269-1.307-2.265,1.307,2.265,1.312Z" transform="translate(-64.082 -16.802)"/><path class="g" d="M116.244,38.667l-2.269-1.307-2.265,1.307,2.265,1.307Z" transform="translate(-59.006 -19.734)"/><path class="g" d="M96.119,65.09l-8.69,5.02-.939,3.156,11.9-6.869Z" transform="translate(-45.685 -34.381)"/><path class="g" d="M150.14,49.757l2.269,1.312,2.265-1.312-2.265-1.307Z" transform="translate(-79.305 -25.592)"/><path class="g" d="M159.75,55.307l.009,0L162.029,54l-.014,0Z" transform="translate(-84.381 -28.523)"/><path class="g" d="M98.492,49.757,96.228,48.45,95.27,49l.226.755-.226.76.958.552Z" transform="translate(-50.322 -25.592)"/><path class="g" d="M116.244,49.762l-2.269-1.312-2.265,1.312,2.265,1.307Z" transform="translate(-59.006 -25.592)"/><path class="g" d="M113.975,59.54l-2.265,1.312,2.265,1.307,2.269-1.307Z" transform="translate(-59.006 -31.45)"/><path class="g" d="M121.32,66.4l2.265,1.312,2.269-1.312-2.269-1.307Z" transform="translate(-64.082 -34.381)"/><path class="g" d="M130.92,60.857l2.269,1.307,2.265-1.307-2.265-1.307Z" transform="translate(-69.153 -31.455)"/><path class="g" d="M140.53,55.307l2.269,1.312,2.265-1.312L142.8,54Z" transform="translate(-74.229 -28.523)"/><path class="g" d="M133.195,39.974l2.269-1.307-2.269-1.307-2.265,1.307Z" transform="translate(-69.158 -19.734)"/><path class="g" d="M98.389,26.889,86.49,20.02l.939,3.161,8.69,5.02Z" transform="translate(-45.685 -10.575)"/><path class="g" d="M150.14,60.857l.009,0,2.265-1.307,0,0Z" transform="translate(-79.305 -31.455)"/><path class="g" d="M100.826,17.2,82.52,6.63l.934,3.161,15.1,8.719Z" transform="translate(-43.588 -3.502)"/><path class="g" d="M95.952,36.58,90.46,33.41l.939,3.161,2.283,1.316Z" transform="translate(-47.782 -17.647)"/><path class="g" d="M93.687,59.55,91.4,60.866l-.939,3.161,5.492-3.17Z" transform="translate(-47.782 -31.455)"/><path class="g" d="M98.556,70.64l-15.1,8.719L82.52,82.52l18.306-10.573Z" transform="translate(-43.588 -37.313)"/><path class="g" d="M140.53,66.4h0l2.269-1.307-.009,0Z" transform="translate(-74.229 -34.381)"/><path class="g" d="M132.97,71.39l1.3-.75h0Z" transform="translate(-70.236 -37.313)"/><path class="g" d="M125.854,44.212,123.585,42.9l-2.265,1.312,2.265,1.307Z" transform="translate(-64.082 -22.66)"/><path class="g" d="M152.4,41.432l.009,0-2.269-1.307,0,0Z" transform="translate(-79.305 -21.192)"/><path class="g" d="M130.92,49.757l2.269,1.312,2.265-1.312-2.265-1.307Z" transform="translate(-69.153 -25.592)"/><path class="g" d="M162.015,46.976l.014-.009-2.269-1.307-.009.009Z" transform="translate(-84.381 -24.118)"/><path class="g" d="M169.374,51.219l.014-.009-.014-.009-.014.014Z" transform="translate(-89.457 -27.044)"/><path class="g" d="M133.189,30.342h0L130.92,29.03v0Z" transform="translate(-69.153 -15.334)"/><path class="g" d="M142.8,35.892l0,0-2.269-1.307h0Z" transform="translate(-74.229 -18.265)"/><path class="h" d="M128.389,31.654l2.265-1.307-2.269-1.307-2.265,1.307Z" transform="translate(-66.618 -15.339)"/><path class="i" d="M157.215,48.294l2.265-1.307-2.265-1.307-2.265,1.307Z" transform="translate(-81.846 -24.129)"/><path class="j" d="M147.6,42.748l2.265-1.312L147.6,40.13l-2.265,1.307Z" transform="translate(-76.77 -21.197)"/><path class="k" d="M138,37.2l2.265-1.307-2.269-1.312-2.265,1.312Z" transform="translate(-71.694 -18.265)"/><path class="l" d="M166.819,51.23l-2.269,1.307.014,0,2.269-1.307Z" transform="translate(-86.917 -27.06)"/><path class="m" d="M102.045,12.389,80.55,0l.929,3.128L99.785,13.7Z" transform="translate(-42.547)"/><path class="n" d="M121.044,35.892l-2.265-1.312-2.269,1.312,2.269,1.307Z" transform="translate(-61.542 -18.265)"/><path class="o" d="M128.389,42.748l2.265-1.312-2.265-1.307-2.269,1.307Z" transform="translate(-66.618 -21.197)"/><path class="p" d="M145.34,52.532l2.265,1.307,2.269-1.307L147.6,51.22Z" transform="translate(-76.77 -27.055)"/><path class="q" d="M154.95,58.082l0,0,2.269-1.312-.009,0Z" transform="translate(-81.846 -29.986)"/><path class="r" d="M99.6,22.049,84.5,13.33l.939,3.156,11.9,6.869Z" transform="translate(-44.634 -7.041)"/><path class="s" d="M137.995,48.288l2.269-1.307-2.269-1.312-2.265,1.312Z" transform="translate(-71.694 -24.123)"/><path class="t" d="M97.17,31.74l-8.69-5.02.934,3.156,5.492,3.17Z" transform="translate(-46.736 -14.114)"/><path class="u" d="M135.73,58.082l2.265,1.307,2.269-1.307-2.269-1.312Z" transform="translate(-71.694 -29.986)"/><path class="v" d="M128.385,51.22l-2.265,1.312,2.265,1.307,2.269-1.307Z" transform="translate(-66.618 -27.055)"/><path class="w" d="M111.434,41.437l-2.265-1.307L106.9,41.437l2.269,1.312Z" transform="translate(-56.465 -21.197)"/><path class="x" d="M145.33,63.627l.009,0,2.269-1.307-.009,0Z" transform="translate(-76.765 -32.918)"/><path class="y" d="M118.779,45.68l-2.269,1.307,2.269,1.312,2.265-1.312Z" transform="translate(-61.542 -24.129)"/><path class="z" d="M128.385,62.32l-2.265,1.307,2.269,1.307,2.265-1.307Z" transform="translate(-66.618 -32.918)"/><path class="aa" d="M99.565,45.68,97.3,46.987l2.265,1.307,2.265-1.307Z" transform="translate(-51.395 -24.129)"/><path class="ab" d="M135.73,69.177h0L138,67.87h0Z" transform="translate(-71.694 -35.849)"/><path class="ac" d="M94.733,41.426,92.45,40.11l.67,2.25Z" transform="translate(-48.833 -21.186)"/><path class="ad" d="M116.51,58.077l2.269,1.312,2.265-1.307-2.269-1.312Z" transform="translate(-61.542 -29.986)"/><path class="ae" d="M109.175,51.23l-2.265,1.307,2.265,1.307,2.265-1.307Z" transform="translate(-56.471 -27.06)"/><path class="af" d="M116.51,69.172l2.269,1.307,2.265-1.307-2.265-1.312Z" transform="translate(-61.542 -35.844)"/><path class="ag" d="M94.832,52.83l-.392,1.33,1.349-.778Z" transform="translate(-49.884 -27.905)"/><path class="ah" d="M109.169,62.32,106.9,63.627l2.269,1.307,2.265-1.307Z" transform="translate(-56.465 -32.918)"/><path class="ai" d="M99.565,56.77,97.3,58.082l2.265,1.307,2.269-1.312Z" transform="translate(-51.395 -29.986)"/><path class="aj" d="M111.434,35.892l-2.265-1.312L106.9,35.892l2.269,1.307Z" transform="translate(-56.465 -18.265)"/><path class="ak" d="M129.673,28.316v0l-1.113-.642Z" transform="translate(-67.906 -14.616)"/><path class="al" d="M121.044,30.342l-2.265-1.312-2.269,1.312,2.269,1.307Z" transform="translate(-61.542 -15.334)"/><path class="am" d="M101.824,41.437,99.559,40.13,97.29,41.437l2.269,1.312Z" transform="translate(-51.389 -21.197)"/><path class="an" d="M94.44,46.8l.392,1.33.958-.552Z" transform="translate(-49.884 -24.72)"/><path class="ao" d="M125.849,27.572l-1.113-.646-1.156-.665-2.26,1.307,2.265,1.312Z" transform="translate(-64.082 -13.871)"/><path class="ap" d="M116.244,33.117l-2.269-1.307-2.265,1.307,2.265,1.312Z" transform="translate(-59.006 -16.802)"/><path class="aq" d="M106.634,38.667l-2.269-1.307L102.1,38.667l2.265,1.307Z" transform="translate(-53.93 -19.734)"/><path class="ar" d="M97.753,44.212,95.484,42.9l-1.614.934.269.906,1.349.778Z" transform="translate(-49.583 -22.66)"/><path class="as" d="M109.169,45.68,106.9,46.987l2.269,1.312,2.265-1.312Z" transform="translate(-56.465 -24.129)"/><path class="at" d="M137.995,33.117h0L135.73,31.81h0Z" transform="translate(-71.694 -16.802)"/><path class="au" d="M93.12,57.57l-.67,2.25L94.738,58.5Z" transform="translate(-48.833 -30.409)"/><path class="av" d="M121.044,41.437l-2.265-1.307-2.269,1.307,2.269,1.312Z" transform="translate(-61.542 -21.197)"/><path class="aw" d="M99.565,51.22,97.3,52.532l2.265,1.307,2.269-1.307Z" transform="translate(-51.395 -27.055)"/><path class="ax" d="M128.389,37.2l2.265-1.307-2.265-1.312-2.269,1.312Z" transform="translate(-66.618 -18.265)"/><path class="ay" d="M133.195,34.428l2.265-1.312-2.265-1.307-2.265,1.307Z" transform="translate(-69.158 -16.802)"/><path class="az" d="M125.854,38.667l-2.269-1.307-2.265,1.307,2.265,1.307Z" transform="translate(-64.082 -19.734)"/><path class="ba" d="M116.244,44.212,113.975,42.9l-2.265,1.312,2.265,1.307Z" transform="translate(-59.006 -22.66)"/><path class="bb" d="M106.634,49.762l-2.269-1.312L102.1,49.757l2.269,1.312Z" transform="translate(-53.93 -25.592)"/><path class="bc" d="M95.488,54l-1.349.778-.269.906,1.618.934,2.265-1.312Z" transform="translate(-49.583 -28.523)"/><path class="bd" d="M94.906,62.32l-5.492,3.17-.934,3.156,8.69-5.02Z" transform="translate(-46.736 -32.918)"/><path class="be" d="M128.389,45.68l-2.269,1.307,2.265,1.307,2.269-1.307Z" transform="translate(-66.618 -24.129)"/><path class="bf" d="M116.51,52.537l2.265,1.307,2.269-1.307-2.265-1.307Z" transform="translate(-61.542 -27.06)"/><path class="bg" d="M137.995,42.744l2.269-1.307L138,40.13l-2.269,1.307Z" transform="translate(-71.694 -21.197)"/><path class="bh" d="M109.175,56.77l-2.265,1.307,2.265,1.312,2.265-1.312Z" transform="translate(-56.471 -29.986)"/><path class="bi" d="M147.6,38.662l0,0-2.265-1.307,0,0Z" transform="translate(-76.77 -19.729)"/><path class="bj" d="M142.8,39.974l2.265-1.307L142.8,37.36l-2.265,1.307Z" transform="translate(-74.234 -19.734)"/><path class="bk" d="M133.195,45.518l2.265-1.312L133.195,42.9l-2.265,1.312Z" transform="translate(-69.158 -22.66)"/><path class="bl" d="M121.32,49.762l2.265,1.307,2.265-1.312-2.265-1.307Z" transform="translate(-64.082 -25.592)"/><path class="bm" d="M113.975,54l-2.265,1.307,2.265,1.307,2.265-1.307Z" transform="translate(-59.006 -28.523)"/><path class="bn" d="M104.369,59.54,102.1,60.852l2.265,1.307,2.269-1.307Z" transform="translate(-53.93 -31.45)"/><path class="bo" d="M147.6,48.294l2.269-1.307L147.6,45.68l-2.265,1.307Z" transform="translate(-76.77 -24.129)"/><path class="bp" d="M128.385,56.77l-2.265,1.312,2.265,1.307,2.269-1.307Z" transform="translate(-66.618 -29.986)"/><path class="bq" d="M97.337,67.86l-11.9,6.869L84.5,77.89l15.1-8.719Z" transform="translate(-44.634 -35.844)"/><path class="br" d="M116.51,63.627l2.269,1.307,2.265-1.307-2.265-1.307Z" transform="translate(-61.542 -32.918)"/><path class="ax" d="M135.73,52.532l2.265,1.307,2.269-1.307-2.269-1.312Z" transform="translate(-71.694 -27.055)"/><path class="bs" d="M157.209,44.206l.009-.009-2.269-1.307-.009,0Z" transform="translate(-81.841 -22.655)"/><path class="bt" d="M152.409,45.518l2.265-1.307L152.4,42.9l-2.265,1.312Z" transform="translate(-79.305 -22.66)"/><path class="bu" d="M140.53,49.757l2.269,1.312,2.265-1.312L142.8,48.45Z" transform="translate(-74.229 -25.592)"/><path class="bv" d="M130.92,55.307l2.269,1.312,2.265-1.312L133.189,54Z" transform="translate(-69.153 -28.523)"/><path class="bw" d="M121.32,60.857l2.265,1.307,2.265-1.307-2.265-1.307Z" transform="translate(-64.082 -31.455)"/><path class="bx" d="M113.975,65.09,111.71,66.4l2.265,1.312,2.269-1.312Z" transform="translate(-59.006 -34.381)"/><path class="by" d="M166.819,49.751l.014-.014-2.269-1.307-.014.009Z" transform="translate(-86.917 -25.581)"/><path class="bz" d="M102.045,74.717l-2.26-1.307L81.479,83.983l-.929,3.123Z" transform="translate(-42.547 -38.776)"/><path class="ca" d="M128.389,67.86l-2.269,1.312,2.265,1.307.967-.557,1.3-.75Z" transform="translate(-66.618 -35.844)"/><path class="cb" d="M154.95,52.532l2.265,1.307,2.265-1.307-2.265-1.312Z" transform="translate(-81.846 -27.055)"/><path class="cc" d="M145.34,58.082l2.265,1.307,2.269-1.307L147.6,56.77Z" transform="translate(-76.77 -29.986)"/><path class="cd" d="M135.73,63.627l2.265,1.312,2.265-1.312-2.265-1.307Z" transform="translate(-71.694 -32.918)"/><path class="ce" d="M159.75,49.757l2.265,1.312,2.269-1.307-2.269-1.312Z" transform="translate(-84.381 -25.592)"/><path class="cf" d="M150.14,55.307l2.269,1.312,2.265-1.312L152.409,54Z" transform="translate(-79.305 -28.523)"/><path class="cg" d="M140.53,60.857l2.265,1.307,2.269-1.307L142.8,59.55Z" transform="translate(-74.229 -31.455)"/><path class="ch" d="M130.93,66.4l2.265,1.312,2.265-1.307-2.265-1.312Z" transform="translate(-69.158 -34.381)"/><path class="ci" d="M123.58,73.254l2.269-1.307-2.265-1.307-2.265,1.307Z" transform="translate(-64.082 -37.313)"/><g transform="translate(151.171 49.274)"><path class="cj" d="M320.42,107.1a2.64,2.64,0,1,1,2.642,2.647A2.634,2.634,0,0,1,320.42,107.1Zm4.93,0a2.293,2.293,0,1,0-2.288,2.326A2.3,2.3,0,0,0,325.35,107.1Zm-3.27,1.4v-2.906H323.1c.665,0,1.043.293,1.043.83a.763.763,0,0,1-.642.8l.689,1.279h-.443l-.656-1.231h-.609V108.5h-.406Zm.41-1.557h.594c.415,0,.656-.132.656-.5,0-.354-.241-.481-.665-.481h-.585v.986Z" transform="translate(-320.42 -104.44)"/></g></svg>