<svg xmlns="http://www.w3.org/2000/svg" xmlns:xlink="http://www.w3.org/1999/xlink" width="183.896" height="57.104" viewBox="0 0 183.896 57.104"><defs><style>.a{fill:none;}.b{clip-path:url(#a);}.c{fill:#006cae;}.d{fill:#58595b;}.e{fill:#00a7e8;}.f{fill:#4fc8ec;}.g{fill:#0080af;}.h{fill:#005382;}</style><clipPath id="a"><rect class="a" width="183.896" height="57.104"/></clipPath></defs><g class="b"><g transform="translate(55.643 14.186)"><path class="c" d="M600.294,84.487v-2.45h17.674v2.45H610.6V103.9h-2.94V84.487Z" transform="translate(-600.294 -82.037)"/><path class="c" d="M648.83,96.524v3.337h.062a7.071,7.071,0,0,1,2.352-2.847,5.966,5.966,0,0,1,3.529-.857v2.756a7.52,7.52,0,0,0-2.693.429,4.246,4.246,0,0,0-1.8,1.255,5.167,5.167,0,0,0-.99,2.006,10.707,10.707,0,0,0-.309,2.709v7.042h-2.631V96.524Z" transform="translate(-627.682 -90.492)"/><path class="c" d="M677.809,85.221V82.037h2.631v3.184Zm2.631,2.847V103.9h-2.631V88.069Z" transform="translate(-646.385 -82.037)"/><path class="c" d="M700.7,112.907l-5.943-15.828h2.94l4.488,13.2h.062l4.364-13.2h2.755l-5.85,15.828Z" transform="translate(-656.461 -91.047)"/><path class="c" d="M750.515,112.3a3.761,3.761,0,0,1-1.888.4,2.278,2.278,0,0,1-1.625-.567,2.444,2.444,0,0,1-.6-1.852,6.288,6.288,0,0,1-2.523,1.852,8.8,8.8,0,0,1-5.169.322,4.8,4.8,0,0,1-1.687-.765,3.683,3.683,0,0,1-1.13-1.363,4.549,4.549,0,0,1-.418-2.036,4.606,4.606,0,0,1,.464-2.2,4.022,4.022,0,0,1,1.223-1.393,5.636,5.636,0,0,1,1.733-.811q.975-.275,2-.46,1.083-.214,2.059-.321a11.565,11.565,0,0,0,1.718-.306,2.876,2.876,0,0,0,1.176-.582,1.411,1.411,0,0,0,.433-1.118,2.576,2.576,0,0,0-.325-1.378,2.217,2.217,0,0,0-.835-.8,3.44,3.44,0,0,0-1.145-.368,8.785,8.785,0,0,0-1.253-.091,5.618,5.618,0,0,0-2.786.628,2.656,2.656,0,0,0-1.207,2.373h-2.631a5.568,5.568,0,0,1,.619-2.48,4.66,4.66,0,0,1,1.485-1.638,6.268,6.268,0,0,1,2.12-.9,11.311,11.311,0,0,1,2.554-.276,15.17,15.17,0,0,1,2.151.153,5.678,5.678,0,0,1,1.934.626,3.7,3.7,0,0,1,1.393,1.329,4.209,4.209,0,0,1,.526,2.229v8.127a5.946,5.946,0,0,0,.109,1.344q.108.428.727.428a3.221,3.221,0,0,0,.8-.123Zm-4.272-8.114a3.3,3.3,0,0,1-1.3.533q-.806.168-1.687.274t-1.78.244a6.609,6.609,0,0,0-1.609.441,2.911,2.911,0,0,0-1.161.868,2.4,2.4,0,0,0-.449,1.539,2.075,2.075,0,0,0,.263,1.081,2.169,2.169,0,0,0,.681.716,2.892,2.892,0,0,0,.975.4,5.483,5.483,0,0,0,1.176.121,6.318,6.318,0,0,0,2.229-.35,4.694,4.694,0,0,0,1.517-.883,3.5,3.5,0,0,0,.867-1.158,2.889,2.889,0,0,0,.279-1.173Z" transform="translate(-680.672 -90.498)"/><path class="c" d="M784.042,82.037V103.9h-2.631V82.037Z" transform="translate(-707.987 -82.037)"/><path class="c" d="M810.192,111.348a7.319,7.319,0,0,1-4.519,1.347,8.3,8.3,0,0,1-3.328-.612,6.546,6.546,0,0,1-2.367-1.715,7.25,7.25,0,0,1-1.44-2.633A12.546,12.546,0,0,1,798,104.4a9.44,9.44,0,0,1,.557-3.307,7.893,7.893,0,0,1,1.563-2.6,7.092,7.092,0,0,1,2.383-1.715,7.351,7.351,0,0,1,3.018-.612,6.623,6.623,0,0,1,3.544.873,6.986,6.986,0,0,1,2.26,2.22,8.733,8.733,0,0,1,1.176,2.939,12.475,12.475,0,0,1,.263,3.031H800.783a6.2,6.2,0,0,0,.247,1.975,4.347,4.347,0,0,0,2.477,2.8,5.49,5.49,0,0,0,2.259.429,4.586,4.586,0,0,0,2.739-.765,3.7,3.7,0,0,0,1.408-2.327h2.6A6.314,6.314,0,0,1,810.192,111.348Zm-.634-10.165a4.451,4.451,0,0,0-.96-1.423,4.517,4.517,0,0,0-3.234-1.3,4.623,4.623,0,0,0-1.842.352,4.253,4.253,0,0,0-1.409.964,4.619,4.619,0,0,0-.928,1.424,5.355,5.355,0,0,0-.4,1.73h9.193A5.293,5.293,0,0,0,809.558,101.183Z" transform="translate(-717.849 -90.498)"/><path class="c" d="M846.377,96.53V99.04h.062a5.551,5.551,0,0,1,5.2-2.878,7.028,7.028,0,0,1,2.631.429,4.335,4.335,0,0,1,1.7,1.194,4.416,4.416,0,0,1,.913,1.822,9.707,9.707,0,0,1,.263,2.342v10.409h-2.631V101.642a3.126,3.126,0,0,0-.867-2.327,3.243,3.243,0,0,0-2.383-.857,5.411,5.411,0,0,0-2.089.367,3.92,3.92,0,0,0-1.47,1.041,4.476,4.476,0,0,0-.882,1.577,6.342,6.342,0,0,0-.294,1.974v8.94H843.9V96.53Z" transform="translate(-745.144 -90.498)"/><path class="c" d="M892.677,89.99v2.3h-3.188v9.828a2.8,2.8,0,0,0,.077.735.756.756,0,0,0,.294.429,1.31,1.31,0,0,0,.6.2,8.9,8.9,0,0,0,1.006.046h1.207v2.3h-2.012a9.581,9.581,0,0,1-1.748-.138,2.584,2.584,0,0,1-1.176-.505,2.155,2.155,0,0,1-.666-1.041,5.949,5.949,0,0,1-.216-1.776V92.286h-2.724v-2.3h2.724V85.245h2.631V89.99Z" transform="translate(-769.067 -83.959)"/></g><g transform="translate(62.928 42.528)"><rect class="d" width="1.259" height="7.312" transform="translate(0 0.073)"/><path class="d" d="M640.3,158.148c-.419-.472-1.122-1.255-2.187-2.436-1-1.113-1.819-2.045-2.432-2.77l-.036-.043h-1.087v7.312h1.258v-5.279l4.609,5.236.036.043h1.1V152.9H640.3Z" transform="translate(-627.952 -152.826)"/><path class="d" d="M665.591,158.335,662.93,152.9H661.57l3.542,7.242.033.07h.9l3.406-7.137.083-.174H668.18Z" transform="translate(-644.014 -152.827)"/><path class="d" d="M693.022,156.99h4.352v-1.151h-4.352v-1.788h4.911V152.9h-6.158v7.312h6.211v-1.152h-4.964Z" transform="translate(-661.973 -152.827)"/><path class="d" d="M723.83,156.423a9.508,9.508,0,0,0-2.675-.712,5.962,5.962,0,0,1-1.367-.344.641.641,0,0,1-.416-.609c0-.59.647-.889,1.921-.889a3.447,3.447,0,0,1,1.525.257c.343.173.54.609.586,1.3l.008.114h1.23l0-.124c-.03-1.788-1.156-2.695-3.348-2.695-2.11,0-3.179.686-3.179,2.04a1.76,1.76,0,0,0,1.155,1.652,9.235,9.235,0,0,0,1.915.521c.759.148,1.269.256,1.477.31a1.848,1.848,0,0,1,.7.306.652.652,0,0,1,.17.5c0,.328-.191.561-.6.733a3.591,3.591,0,0,1-1.425.24c-1.59,0-2.363-.472-2.363-1.442v-.549h-1.269v.581a2.2,2.2,0,0,0,1.224,2.068,5.138,5.138,0,0,0,2.4.494,4.865,4.865,0,0,0,2.1-.418,1.8,1.8,0,0,0,1.2-1.685A1.775,1.775,0,0,0,723.83,156.423Z" transform="translate(-677.491 -152.718)"/><path class="d" d="M745.711,154.051h2.74v6.161h1.259v-6.161h2.729V152.9h-6.727Z" transform="translate(-694.044 -152.827)"/><path class="d" d="M777.538,158.446l-3-5.482-.036-.064h-1.188v7.312h1.258v-4.623l2.5,4.559.035.064h.874l2.532-4.623v4.623h1.259V152.9h-1.188Z" transform="translate(-710.458 -152.827)"/><path class="d" d="M807.06,156.99h4.352v-1.151H807.06v-1.788h4.911V152.9h-6.159v7.312h6.212v-1.152H807.06Z" transform="translate(-729.781 -152.827)"/><path class="d" d="M839.026,158.148c-.425-.48-1.144-1.28-2.187-2.436-1-1.11-1.816-2.042-2.432-2.77l-.037-.043h-1.087v7.312h1.259v-5.279l4.609,5.236.037.043h1.1V152.9h-1.259Z" transform="translate(-746.115 -152.826)"/><path class="d" d="M861.538,154.051h2.739v6.161h1.259v-6.161h2.729V152.9h-6.727Z" transform="translate(-762.916 -152.827)"/><path class="d" d="M894.531,156.423a9.508,9.508,0,0,0-2.675-.712,5.934,5.934,0,0,1-1.367-.344.641.641,0,0,1-.416-.609c0-.59.647-.889,1.921-.889a3.443,3.443,0,0,1,1.525.257c.343.173.541.609.586,1.3l.009.114h1.232l0-.124c-.029-1.788-1.155-2.695-3.348-2.695-2.11,0-3.179.686-3.179,2.04a1.761,1.761,0,0,0,1.155,1.652,9.253,9.253,0,0,0,1.916.521c.759.148,1.27.256,1.477.31a1.844,1.844,0,0,1,.7.306.651.651,0,0,1,.17.5c0,.328-.191.561-.6.733a3.588,3.588,0,0,1-1.424.24c-1.591,0-2.364-.472-2.364-1.442v-.549h-1.269v.581a2.2,2.2,0,0,0,1.224,2.068,5.136,5.136,0,0,0,2.4.494,4.857,4.857,0,0,0,2.1-.418,1.8,1.8,0,0,0,1.2-1.685A1.775,1.775,0,0,0,894.531,156.423Z" transform="translate(-778.99 -152.718)"/></g><path class="e" d="M478.6,82.26h-7.227l-8.333,14.276,8.333,14.276H478.6l8.333-14.276Z" transform="translate(-463.036 -67.984)"/><path class="f" d="M519.19,75.21h7.227l8.333-14.276-8.333-14.276H509.752l-8.333,14.276h9.439Z" transform="translate(-485.859 -46.658)"/><path class="e" d="M519.19,96.536,510.858,82.26h-9.439l8.333,14.276Z" transform="translate(-485.859 -67.984)"/><path class="g" d="M519.19,96.536,510.858,82.26h-9.439l8.333,14.276Z" transform="translate(-485.859 -67.984)"/><path class="c" d="M519.19,117.863l-8.333,14.276h-9.439l8.333,14.276h16.666l8.333-14.276-8.333-14.276Z" transform="translate(-485.859 -89.311)"/><path class="e" d="M519.19,117.863h-9.439l-8.333,14.276h9.439Z" transform="translate(-485.859 -89.311)"/><path class="h" d="M519.19,117.863h-9.439l-8.333,14.276h9.439Z" transform="translate(-485.859 -89.311)"/><g transform="translate(178.551 12.262)"><path class="c" d="M911.314,79.811a2.674,2.674,0,1,1-2.665-2.574A2.6,2.6,0,0,1,911.314,79.811Zm-4.679,0a2,2,0,0,0,2.03,2.056,1.98,1.98,0,0,0,1.983-2.04,2.007,2.007,0,1,0-4.013-.016Zm1.6,1.35h-.6V78.587a5.311,5.311,0,0,1,1-.078,1.631,1.631,0,0,1,.9.188.71.71,0,0,1,.254.565.662.662,0,0,1-.539.6v.031a.761.761,0,0,1,.476.628,1.921,1.921,0,0,0,.191.644h-.65a2.145,2.145,0,0,1-.206-.628c-.048-.283-.206-.408-.54-.408h-.285Zm.015-1.46h.286c.333,0,.6-.11.6-.376,0-.235-.174-.392-.554-.392a1.5,1.5,0,0,0-.334.031Z" transform="translate(-905.969 -77.237)"/></g></g></svg>