<svg xmlns="http://www.w3.org/2000/svg" width="186.202" height="74.2" viewBox="0 0 186.202 74.2"><defs><style>.a{fill:#fff;}</style></defs><g transform="translate(93.101 37.1)"><g transform="translate(-93.101 -37.1)"><path class="a" d="M111.9,62.5v4a26.9,26.9,0,0,1-5.5.7c-5.6,0-9.7-3.2-9.7-10s4.2-10,10.2-10a16.3,16.3,0,0,1,5.4.9V52h-1.4V49.1a14.8,14.8,0,0,0-4-.5c-5.2,0-8.6,3.4-8.6,8.8s3.2,8.5,8.4,8.5a17.9,17.9,0,0,0,3.9-.4v-3Z"/><path class="a" d="M119.1,65.9a3.9,3.9,0,0,0,3.1-1.5c1-1.3,1.1-2.3,1.1-4.3-5,.1-7.4.3-7.4,3.1s1.2,2.6,3.2,2.6m7.8,1h-3.7a22,22,0,0,1,.3-3.2h-.1c-.8,2-2,3.6-4.6,3.6s-4.5-1.2-4.5-3.9,2.1-3.9,5.1-4.1l3.8-.2c0-.4.1-.9.1-1.3,0-2.3-.6-3.9-3.7-3.9a10.2,10.2,0,0,0-3.3.6v2.4H115V53.4a10.6,10.6,0,0,1,4.8-1c3.8,0,4.8,2.1,4.8,4.5s-.1,6.1-.1,8.8h2.3Z"/><path class="a" d="M135.7,53.7c-2.7,0-4.6,2.1-4.6,5.8v5.8a8.5,8.5,0,0,0,3.5.6c4,0,5.7-2.9,5.7-6.6s-1.2-5.7-4.5-5.7m-8.4,18.9h2.3V54H127V52.8h4.1a22.7,22.7,0,0,1-.2,3h.1a5,5,0,0,1,4.9-3.2c3.9,0,5.8,2.9,5.8,6.6s-2.1,8.2-7.3,8.2a10.3,10.3,0,0,1-3.4-.5v5.9h2.6V74h-6.3Z"/><path class="a" d="M146.2,45.5a1.4,1.4,0,1,1-1.3,1.4,1.3,1.3,0,0,1,1.3-1.4m-3.1,20.2h2.4V54h-2.7V52.8H147V65.7h2.5v1.2h-6.4Z"/><path class="a" d="M158.8,66.5a7.4,7.4,0,0,1-3.2.7c-2.4,0-3.6-1.3-3.6-4.2s0-6,.1-9.1h-2.5V52.8h2.5V49.1h1.4v3.8h4.7V54h-4.7c0,2.9-.1,5.7-.1,8.6s.6,3.5,2.5,3.5a7.7,7.7,0,0,0,3.1-.8Z"/><path class="a" d="M165.1,65.9a3.9,3.9,0,0,0,3.1-1.5c1-1.3,1.1-2.3,1.1-4.3-5,.1-7.4.3-7.4,3.1s1.2,2.6,3.2,2.6m7.8,1h-3.7a22,22,0,0,1,.3-3.2h-.1c-.8,2-2,3.6-4.6,3.6s-4.5-1.2-4.5-3.9,2.1-3.9,5.1-4.1l3.8-.2c0-.4.1-.9.1-1.3,0-2.3-.6-3.9-3.7-3.9a10.2,10.2,0,0,0-3.3.6v2.4H161V53.4a10.6,10.6,0,0,1,4.8-1c3.8,0,4.8,2.1,4.8,4.5s-.1,6.1-.1,8.8h2.3Z"/><path class="a" d="M174.9,65.7h2.4l.1-18.8h-3.2V45.7h4.6l-.1,20h2.5v1.2h-6.3Z"/><path class="a" d="M36.7,55.1l-1.3-.2c-2.6,0-3.6,2.3-3.6,4.3A4.594,4.594,0,0,0,36.4,64a8.4,8.4,0,0,0,3.6-.8l-.2,3.3a10.7,10.7,0,0,1-4.3.7c-4.9,0-7.5-3.4-7.5-7.5a7.41,7.41,0,0,1,7.6-7.6,15.1,15.1,0,0,1,4.6.7V57H36.7Z"/><path class="a" d="M43.1,49.5l3.9-.2v3.2h3.9v2.8H47v6.4c0,2,.5,2.5,2.1,2.5a5.5,5.5,0,0,0,1.9-.4v2.7a10.1,10.1,0,0,1-3.4.7c-2.8,0-4.4-1.3-4.4-3.9v-8h-2V52.5h1.9Z"/><path class="a" d="M58.9,64.1c2.4,0,3.4-1.6,3.4-4.2s-1-4.6-3.4-4.6-3.4,2-3.4,4.6,1,4.2,3.4,4.2m0-12c4.9,0,7.6,2.7,7.6,7.7s-3,7.4-7.6,7.4-7.6-2.5-7.6-7.4a7.4,7.4,0,0,1,7.6-7.7"/><path class="a" d="M76.9,52.1c-2.1.1-3.4,1.3-4,3.6h-.1a22,22,0,0,0,.2-3.3H67.5v2.8h1.9V64H67.8v2.8H75V64.1H73.2V59.4a3.5,3.5,0,0,1,3.6-3.8H78V55Z"/><path class="a" d="M88.6,52.5v2.8h1.8a3.8,3.8,0,0,0-.5,1l-1.7,4.9a14.7,14.7,0,0,0-.7,2.7h-.1a14.7,14.7,0,0,0-.7-2.7L85,56.3a3.7,3.7,0,0,0-.5-1H86V52.5H78.8L80,55.3h0l3.5,8,2,4.6h0c-1.3,2.6-2,3.3-3.6,3.3l-2.1-.3v3l2.1.3c3.6,0,5.3-1.4,7.3-7l4.4-11.9h1.3V52.5Z"/><path class="a" d="M25.4,64.1V52.5H20.7l-1.2,2.8h2v8.8H19.9v2.8H27V64.1Z"/><path class="a" d="M13,47.6h7.5v2.8H19L12.5,66.9H8L1.5,50.4H0V47.6H7.8v2.8H6.2l3.8,11a12.3,12.3,0,0,1,.6,2.3h.1a12.3,12.3,0,0,1,.6-2.3l3.8-11H13Z"/><path class="a" d="M24.8,42.8"/><path class="a" d="M43.1,21.7,24.8,42.8,43.1,26.9Z"/><path class="a" d="M43.1,34.3V30.7L24.8,42.8Z"/><path class="a" d="M43.1,0,24.8,42.8,43.1,16.5Z"/><path class="a" d="M186.2,47.3a2.3,2.3,0,1,1-2.3-2.2,2.2,2.2,0,0,1,2.3,2.2Zm-4,0a1.7,1.7,0,1,0,1.7-1.7,1.7,1.7,0,0,0-1.7,1.7Zm1.4,1.2H183V46.2h.9l.8.2a.568.568,0,0,1-.3,1h0a.7.7,0,0,1,.4.5,1.7,1.7,0,0,0,.2.6h-.6a1.9,1.9,0,0,1-.2-.5.458.458,0,0,0-.5-.4h-.2Zm0-1.3h.2c.3,0,.5-.1.5-.3s-.1-.3-.5-.3h-.3Z"/></g></g></svg>