<svg xmlns="http://www.w3.org/2000/svg" width="19.488" height="19.488" viewBox="0 0 19.488 19.488"><defs><style>.a{fill:#004a98;}</style></defs><path class="a" d="M11.011,3.71a1.137,1.137,0,1,0-.59,2.2,1.106,1.106,0,0,0,.294.039,1.139,1.139,0,0,0,1.1-.842l.007-.028A1.139,1.139,0,0,0,11.011,3.71Z"/><path class="a" d="M11.266,12.89l-.005,0c-.839.372-1.282.382-1.415.269-.113-.1-.063-.359-.024-.508l1.542-5.758L7.9,7.134a.688.688,0,0,0-.669.7.71.71,0,0,0,.752.667l.234-.015a.384.384,0,0,1,.412.363.374.374,0,0,1-.012.124L7.307,13.87a1.017,1.017,0,0,0,.33,1.1,1.449,1.449,0,0,0,.926.293,2.9,2.9,0,0,0,1.285-.341,7.288,7.288,0,0,0,1.82-1.466.354.354,0,0,0-.4-.563Z"/><path class="a" d="M9.744,0a9.744,9.744,0,1,0,9.744,9.744A9.755,9.755,0,0,0,9.744,0Zm7.9,9.743a7.906,7.906,0,1,1-7.9-7.906A7.912,7.912,0,0,1,17.649,9.743Z"/></svg>