<svg xmlns="http://www.w3.org/2000/svg" xmlns:xlink="http://www.w3.org/1999/xlink" width="209.409" height="40.025" viewBox="0 0 209.409 40.025"><defs><style>.a{fill:none;}.b{clip-path:url(#a);}.c{fill:#f26929;}.d{fill:#221f1f;}</style><clipPath id="a"><rect class="a" width="209.409" height="40.025"/></clipPath></defs><g class="b"><g transform="translate(0.264 34.441)"><path class="c" d="M408.006,168.705h.814v5.444h-.814Z" transform="translate(-408.006 -168.628)"/><path class="c" d="M417.659,168.705h.774v5.444h-.7l-3.8-4.192v4.192h-.765v-5.444h.66l3.835,4.228Z" transform="translate(-410.535 -168.628)"/><path class="c" d="M427,174.141v-5.436h1.918a4.2,4.2,0,0,1,1.837.333,2.589,2.589,0,0,1,1.075.98,2.64,2.64,0,0,1,.4,1.41,2.565,2.565,0,0,1-.22,1.044,2.646,2.646,0,0,1-.627.877,2.764,2.764,0,0,1-.965.588,2.941,2.941,0,0,1-.59.162,8.281,8.281,0,0,1-1.026.041Zm1.832-4.742h-1.018v4.049h1.042a4.349,4.349,0,0,0,.949-.08,2.3,2.3,0,0,0,.564-.2,1.941,1.941,0,0,0,.413-.3,1.972,1.972,0,0,0,.6-1.477,1.831,1.831,0,0,0-.618-1.43,1.982,1.982,0,0,0-.523-.339,2.27,2.27,0,0,0-.56-.175A6,6,0,0,0,428.829,169.4Z" transform="translate(-417.316 -168.628)"/><path class="c" d="M440.2,168.705h3.225v.694h-2.41v1.66h2.329v.7h-2.329v1.691H443.5v.694h-3.3Z" transform="translate(-423.789 -168.628)"/><path class="c" d="M449.429,174.141V168.69h1.8a1.912,1.912,0,0,1,1.3.421,1.422,1.422,0,0,1,.484,1.13,1.461,1.461,0,0,1-.249.841,1.4,1.4,0,0,1-.68.532,3.594,3.594,0,0,1-1.237.165h-.6v2.361Zm1.661-4.758h-.843v1.7h.892a1.164,1.164,0,0,0,.765-.224.787.787,0,0,0,.269-.641Q452.173,169.384,451.09,169.384Z" transform="translate(-428.314 -168.62)"/><path class="c" d="M458.777,168.705H462v.694h-2.411v1.66h2.329v.7h-2.329v1.691h2.488v.694h-3.3Z" transform="translate(-432.897 -168.628)"/><path class="c" d="M472.565,168.705h.774v5.444h-.7l-3.8-4.192v4.192h-.765v-5.444h.66l3.835,4.228Z" transform="translate(-437.453 -168.628)"/><path class="c" d="M481.9,174.141v-5.436h1.917a4.2,4.2,0,0,1,1.837.333,2.582,2.582,0,0,1,1.075.98,2.64,2.64,0,0,1,.4,1.41,2.565,2.565,0,0,1-.22,1.044,2.646,2.646,0,0,1-.627.877,2.765,2.765,0,0,1-.965.588,2.941,2.941,0,0,1-.59.162,8.28,8.28,0,0,1-1.026.041Zm1.832-4.742h-1.018v4.049h1.042a4.347,4.347,0,0,0,.949-.08,2.283,2.283,0,0,0,.564-.2,1.939,1.939,0,0,0,.413-.3,1.973,1.973,0,0,0,.6-1.477,1.832,1.832,0,0,0-.619-1.43,1.982,1.982,0,0,0-.523-.339,2.263,2.263,0,0,0-.56-.175A6,6,0,0,0,483.735,169.4Z" transform="translate(-444.234 -168.628)"/><path class="c" d="M495.106,168.705h3.224v.694h-2.41v1.66h2.329v.7H495.92v1.691h2.488v.694h-3.3Z" transform="translate(-450.707 -168.628)"/><path class="c" d="M508.894,168.705h.774v5.444h-.7l-3.8-4.192v4.192H504.4v-5.444h.66l3.835,4.228Z" transform="translate(-455.263 -168.628)"/><path class="c" d="M517.069,168.69h4.751v.694h-1.983v4.758h-.818v-4.758h-1.95Z" transform="translate(-461.475 -168.62)"/><path class="d" d="M533.524,173.08a.931.931,0,0,1,.3-.7,1.065,1.065,0,0,1,1.46,0,.963.963,0,0,1,0,1.4,1.057,1.057,0,0,1-1.458,0A.934.934,0,0,1,533.524,173.08Z" transform="translate(-469.542 -170.279)"/><path class="c" d="M550.35,172.82v.857a4.4,4.4,0,0,1-2.068.468,3.3,3.3,0,0,1-1.616-.366,2.758,2.758,0,0,1-1.051-1.009,2.651,2.651,0,0,1-.387-1.391,2.6,2.6,0,0,1,.885-2,3.117,3.117,0,0,1,2.184-.81,5.318,5.318,0,0,1,1.991.448v.838a4.056,4.056,0,0,0-1.95-.545,2.312,2.312,0,0,0-1.622.59,2.022,2.022,0,0,0-.01,2.952,2.323,2.323,0,0,0,1.625.576A3.8,3.8,0,0,0,550.35,172.82Z" transform="translate(-475.28 -168.561)"/><path class="c" d="M560.54,168.554a3.133,3.133,0,0,1,2.194.8,2.593,2.593,0,0,1,.877,2,2.557,2.557,0,0,1-.885,1.994,3.229,3.229,0,0,1-2.232.789,3.04,3.04,0,0,1-2.142-.789,2.577,2.577,0,0,1-.856-1.978,2.632,2.632,0,0,1,.863-2.018A3.083,3.083,0,0,1,560.54,168.554Zm.032.74a2.264,2.264,0,0,0-1.6.584,1.949,1.949,0,0,0-.628,1.493,1.913,1.913,0,0,0,.63,1.465,2.418,2.418,0,0,0,3.167-.012,1.949,1.949,0,0,0,.637-1.484,1.906,1.906,0,0,0-.637-1.455A2.214,2.214,0,0,0,560.572,169.294Z" transform="translate(-481.294 -168.554)"/><path class="c" d="M576.977,168.705h.762v5.444h-.819v-4.236l-1.748,2.1h-.151l-1.769-2.1v4.236h-.815v-5.444h.771l1.89,2.236Z" transform="translate(-488.619 -168.628)"/><path class="c" d="M586.293,174.141V168.69h1.8a1.91,1.91,0,0,1,1.3.421,1.42,1.42,0,0,1,.485,1.13,1.461,1.461,0,0,1-.249.841,1.4,1.4,0,0,1-.68.532,3.593,3.593,0,0,1-1.237.165h-.6v2.361Zm1.661-4.758h-.843v1.7H588a1.165,1.165,0,0,0,.765-.224.787.787,0,0,0,.269-.641Q589.037,169.384,587.954,169.384Z" transform="translate(-495.412 -168.62)"/><path class="c" d="M595.664,174.149v-5.444h1.425a2.12,2.12,0,0,1,1.37.409,1.346,1.346,0,0,1,.507,1.106,1.374,1.374,0,0,1-.249.822,1.47,1.47,0,0,1-.712.518,2.492,2.492,0,0,1,.533.468,9.479,9.479,0,0,1,.733,1.033q.3.463.476.7l.3.389h-.969l-.248-.359c-.008-.013-.024-.035-.049-.066l-.159-.215-.252-.4-.272-.425a4.207,4.207,0,0,0-.462-.533,1.736,1.736,0,0,0-.379-.286,1.322,1.322,0,0,0-.568-.088h-.212v2.369Zm1.059-4.781h-.244v1.718h.309a2.379,2.379,0,0,0,.849-.1.784.784,0,0,0,.358-.306.857.857,0,0,0,.128-.466.8.8,0,0,0-.143-.466.758.758,0,0,0-.4-.294A3.007,3.007,0,0,0,596.723,169.368Z" transform="translate(-500.007 -168.628)"/><path class="c" d="M606.5,168.705h3.225v.694h-2.41v1.66h2.328v.7h-2.328v1.691H609.8v.694h-3.3Z" transform="translate(-505.319 -168.628)"/><path class="c" d="M619.782,168.705h.814v5.444h-.814V171.78h-3.2v2.369h-.815v-5.444h.815v2.354h3.2Z" transform="translate(-509.864 -168.628)"/><path class="c" d="M628.763,168.705h3.225v.694h-2.411v1.66h2.329v.7h-2.329v1.691h2.488v.694h-3.3Z" transform="translate(-516.234 -168.628)"/><path class="c" d="M642.552,168.705h.774v5.444h-.7l-3.8-4.192v4.192h-.765v-5.444h.659l3.835,4.228Z" transform="translate(-520.79 -168.628)"/><path class="c" d="M653.106,171.8l-.619-.36a2.766,2.766,0,0,1-.828-.67,1.227,1.227,0,0,1-.247-.758,1.314,1.314,0,0,1,.466-1.044,1.794,1.794,0,0,1,1.212-.4,2.362,2.362,0,0,1,1.307.383v.884a1.926,1.926,0,0,0-1.323-.566,1.123,1.123,0,0,0-.655.177.528.528,0,0,0-.257.452.683.683,0,0,0,.189.458,2.357,2.357,0,0,0,.608.449l.622.352a1.74,1.74,0,0,1,1.04,1.514,1.359,1.359,0,0,1-.458,1.064,1.718,1.718,0,0,1-1.19.409,2.579,2.579,0,0,1-1.536-.5v-.99a1.943,1.943,0,0,0,1.527.8.989.989,0,0,0,.637-.2.628.628,0,0,0,.254-.511Q653.855,172.248,653.106,171.8Z" transform="translate(-527.337 -168.561)"/><path class="c" d="M660.613,168.705h.815v5.444h-.815Z" transform="translate(-531.848 -168.628)"/><path class="c" d="M668.677,168.705h.81l-2.4,5.467H666.9l-2.451-5.467h.82l1.71,3.823Z" transform="translate(-533.728 -168.628)"/><path class="c" d="M676.561,168.705h3.225v.694h-2.411v1.66H679.7v.7h-2.329v1.691h2.488v.694h-3.3Z" transform="translate(-539.667 -168.628)"/><path class="d" d="M690.366,173.08a.932.932,0,0,1,.3-.7,1.065,1.065,0,0,1,1.46,0,.962.962,0,0,1,0,1.4,1.057,1.057,0,0,1-1.457,0A.935.935,0,0,1,690.366,173.08Z" transform="translate(-546.435 -170.279)"/><path class="c" d="M702.549,174.149v-5.444h1.425a2.121,2.121,0,0,1,1.37.409,1.347,1.347,0,0,1,.507,1.106,1.374,1.374,0,0,1-.248.822,1.473,1.473,0,0,1-.712.518,2.493,2.493,0,0,1,.533.468,9.543,9.543,0,0,1,.733,1.033q.3.463.476.7l.3.389h-.969l-.247-.359c-.009-.013-.025-.035-.049-.066l-.159-.215-.252-.4-.272-.425a4.29,4.29,0,0,0-.462-.533,1.73,1.73,0,0,0-.379-.286,1.319,1.319,0,0,0-.569-.088h-.212v2.369Zm1.058-4.781h-.244v1.718h.309a2.381,2.381,0,0,0,.849-.1.792.792,0,0,0,.358-.306.861.861,0,0,0,.128-.466.807.807,0,0,0-.143-.466.754.754,0,0,0-.4-.294A3.011,3.011,0,0,0,703.607,169.368Z" transform="translate(-552.408 -168.628)"/><path class="c" d="M713.385,168.705h3.225v.694H714.2v1.66h2.329v.7H714.2v1.691h2.487v.694h-3.3Z" transform="translate(-557.72 -168.628)"/><path class="c" d="M722.614,174.141V168.69h1.8a1.911,1.911,0,0,1,1.3.421,1.422,1.422,0,0,1,.485,1.13,1.465,1.465,0,0,1-.248.841,1.409,1.409,0,0,1-.68.532,3.6,3.6,0,0,1-1.238.165h-.6v2.361Zm1.661-4.758h-.842v1.7h.892a1.166,1.166,0,0,0,.765-.224.789.789,0,0,0,.269-.641Q725.358,169.384,724.275,169.384Z" transform="translate(-562.245 -168.62)"/><path class="c" d="M731.963,168.705h3.225v.694h-2.411v1.66h2.329v.7h-2.329v1.691h2.488v.694h-3.3Z" transform="translate(-566.828 -168.628)"/><path class="c" d="M742.72,168.645h.571l2.551,5.474h-.833l-.758-1.613h-2.426l-.711,1.613h-.837Zm1.2,3.168L743,169.841l-.851,1.972Z" transform="translate(-570.903 -168.598)"/><path class="c" d="M751.1,168.69h4.751v.694h-1.982v4.758h-.819v-4.758H751.1Z" transform="translate(-576.21 -168.62)"/><path class="c" d="M762.736,168.645h.571l2.551,5.474h-.834l-.758-1.613H761.84l-.711,1.613h-.837Zm1.2,3.168-.918-1.972-.851,1.972Z" transform="translate(-580.716 -168.598)"/><path class="c" d="M775.363,174.149h-1.925v-5.444h1.491a2.693,2.693,0,0,1,1.1.181,1.384,1.384,0,0,1,.6.5,1.306,1.306,0,0,1,.208.735,1.191,1.191,0,0,1-.868,1.149,1.785,1.785,0,0,1,.991.491,1.25,1.25,0,0,1,.368.9,1.286,1.286,0,0,1-.223.744,1.612,1.612,0,0,1-.658.534A2.518,2.518,0,0,1,775.363,174.149Zm-.411-4.75h-.7v1.637h.542a1.424,1.424,0,0,0,.927-.237.78.78,0,0,0,.275-.616Q775.995,169.4,774.952,169.4Zm.061,2.33h-.762v1.726h.8a2.713,2.713,0,0,0,.906-.1.851.851,0,0,0,.383-.309.785.785,0,0,0,.144-.452.745.745,0,0,0-.153-.456.9.9,0,0,0-.433-.308A2.825,2.825,0,0,0,775.014,171.729Z" transform="translate(-587.161 -168.628)"/><path class="c" d="M783.795,168.705h.814v4.735h2.561v.709h-3.375Z" transform="translate(-592.239 -168.628)"/><path class="c" d="M792.729,168.705h3.225v.694h-2.411v1.66h2.329v.7h-2.329v1.691h2.488v.694h-3.3Z" transform="translate(-596.619 -168.628)"/></g><g transform="translate(125.947 0.35)"><path class="d" d="M662.923,108.729l-.113.144a4.284,4.284,0,0,1-1.576,1.2,5.146,5.146,0,0,1-2.1.419,4.486,4.486,0,0,1-3.489-1.413,4.19,4.19,0,0,1-1.076-2.885,3.908,3.908,0,0,1,1.3-2.981A4.592,4.592,0,0,1,659.122,102a5.643,5.643,0,0,1,1.119.108,4.341,4.341,0,0,1,1.007.335,4.106,4.106,0,0,1,1.563,1.257l.113.143-.938.682-.113-.143a3.324,3.324,0,0,0-1.2-.946,3.625,3.625,0,0,0-1.538-.323,3.49,3.49,0,0,0-1.7.431,3.039,3.039,0,0,0-1.638,2.718,3.258,3.258,0,0,0,.238,1.232,3.073,3.073,0,0,0,.726,1.006,2.833,2.833,0,0,0,.506.389,3.953,3.953,0,0,0,.57.282,4.074,4.074,0,0,0,1.351.227,3.484,3.484,0,0,0,1.476-.311,3.574,3.574,0,0,0,1.225-.91l.113-.12Z" transform="translate(-654.568 -102.002)"/><path class="d" d="M677.074,102.493l3.953,8.092h-1.289l-1.276-2.549h-3.239l-1.263,2.549h-1.314l3.99-8.092Zm.864,4.441-1.088-2.2-1.088,2.2Z" transform="translate(-663.431 -102.241)"/><path class="d" d="M696.647,103.39a2.048,2.048,0,0,1,.488,1.389,2.078,2.078,0,0,1-.475,1.388,2.329,2.329,0,0,1-1.275.743,11.952,11.952,0,0,1-2.1.119h-.388v3.6h-1.189V102.54h1.8a9.788,9.788,0,0,1,1.914.119A2.217,2.217,0,0,1,696.647,103.39Zm-.725,1.389a1.1,1.1,0,0,0-.188-.611,1.07,1.07,0,0,0-.488-.395,3.6,3.6,0,0,0-1.112-.12h-1.239v2.263l1.175.024q.4-.012.689-.042a1.749,1.749,0,0,0,.462-.1.958.958,0,0,0,.513-.4A1.041,1.041,0,0,0,695.922,104.779Z" transform="translate(-672.775 -102.264)"/><path class="d" d="M705.407,102.54h1.188v8.092h-1.188Z" transform="translate(-679.492 -102.264)"/><path class="d" d="M710.6,102.446h6.066v1.113h-2.426v6.991h-1.2v-6.991H710.6Z" transform="translate(-682.039 -102.219)"/><path class="d" d="M726.82,102.493l3.953,8.092h-1.288l-1.276-2.549h-3.239l-1.263,2.549h-1.314l3.99-8.092Zm.863,4.441-1.088-2.2-1.088,2.2Z" transform="translate(-687.819 -102.241)"/><path class="d" d="M742.885,109.531H746v1.1h-4.29V102.54h1.175Z" transform="translate(-697.29 -102.264)"/><path class="d" d="M662.592,123.66l1.133,8.092h-1.1l-.689-5.112-2.463,5.112h-.409l-2.5-5.147-.677,5.147h-1.085l1.132-8.092h.385l2.953,6.117,2.931-6.117Z" transform="translate(-654.685 -112.566)"/><path class="d" d="M677.593,123.636l3.689,8.092h-1.2l-1.191-2.549h-3.023l-1.18,2.549h-1.225l3.723-8.092Zm.805,4.441-1.015-2.2-1.015,2.2Z" transform="translate(-663.83 -112.554)"/><path class="d" d="M695.388,123.683h1.1v8.092h-.419l-4.728-5.554v5.554h-1.132v-8.092h.42l4.764,5.627Z" transform="translate(-672.039 -112.577)"/><path class="d" d="M708.056,123.636l3.689,8.092h-1.2l-1.191-2.549h-3.023l-1.179,2.549h-1.225l3.723-8.092Zm.805,4.441-1.015-2.2-1.015,2.2Z" transform="translate(-678.765 -112.554)"/><path class="d" d="M727.365,127.372l-.012.179a4.085,4.085,0,0,1-1.086,2.981,3.829,3.829,0,0,1-2.872,1.1,4.792,4.792,0,0,1-1.95-.371,4.337,4.337,0,0,1-1.506-1.15,4.142,4.142,0,0,1-.98-2.717,4.26,4.26,0,0,1,.572-2.142,4.087,4.087,0,0,1,1.54-1.544,4.317,4.317,0,0,1,2.207-.562,4.778,4.778,0,0,1,.957.1,5.29,5.29,0,0,1,.91.276,5.989,5.989,0,0,1,1.716,1.173l.129.132-.841.826-.116-.132a4.162,4.162,0,0,0-1.331-.922,3.375,3.375,0,0,0-1.4-.311,3.27,3.27,0,0,0-1.6.419,2.916,2.916,0,0,0-1.179,1.149,2.966,2.966,0,0,0-.419,1.52,3.182,3.182,0,0,0,1.623,2.741,3.385,3.385,0,0,0,1.681.431,2.812,2.812,0,0,0,1.868-.634,2.434,2.434,0,0,0,.333-.336,2.81,2.81,0,0,0,.263-.383,2.727,2.727,0,0,0,.257-.706h-2.369v-1.113Z" transform="translate(-686.136 -112.315)"/><path class="d" d="M741.887,124.82h-3.572v2.059h3.537V128h-3.537v2.681h3.537V131.8h-4.646v-8.093h4.681Z" transform="translate(-695.082 -112.588)"/><path class="d" d="M755.528,123.66l1.133,8.092h-1.1l-.689-5.112-2.463,5.112H752l-2.5-5.147-.677,5.147h-1.085l1.132-8.092h.386l2.953,6.117,2.931-6.117Z" transform="translate(-700.247 -112.566)"/><path class="d" d="M771.9,124.82h-3.572v2.059h3.537V128h-3.537v2.681h3.537V131.8h-4.646v-8.093H771.9Z" transform="translate(-709.793 -112.588)"/><path class="d" d="M783.656,123.683h1.1v8.092h-.42l-4.728-5.554v5.554h-1.132v-8.092h.42l4.763,5.627Z" transform="translate(-715.313 -112.577)"/><path class="d" d="M792.263,123.589h5.662V124.7h-2.265v6.991h-1.12V124.7h-2.276Z" transform="translate(-722.074 -112.531)"/></g><g transform="translate(0 0)"><path class="d" d="M407.489,102.6h2.694v19.267h-2.694Z" transform="translate(-407.489 -101.943)"/><path class="d" d="M440.666,102.6h2.8v19.267h-1.073l-12.061-13.225v13.225h-2.889V102.6h1.072l12.15,13.4Z" transform="translate(-417.272 -101.943)"/><path class="d" d="M486.747,117.337l-.255.342a9.786,9.786,0,0,1-3.574,2.85,11.2,11.2,0,0,1-4.764,1,9.941,9.941,0,0,1-7.913-3.363,10.274,10.274,0,0,1-2.439-6.869,9.526,9.526,0,0,1,2.95-7.1,10.137,10.137,0,0,1,7.374-2.878,12.174,12.174,0,0,1,2.539.256,9.743,9.743,0,0,1,5.828,3.791l.255.342-2.127,1.625-.256-.342a7.624,7.624,0,0,0-2.723-2.252,7.9,7.9,0,0,0-3.488-.769A7.612,7.612,0,0,0,474.3,105a6.858,6.858,0,0,0-2.723,2.679,7.314,7.314,0,0,0-.992,3.791,8.079,8.079,0,0,0,.539,2.936,7.3,7.3,0,0,0,1.645,2.394,6.507,6.507,0,0,0,1.148.926,8.673,8.673,0,0,0,1.291.67,8.811,8.811,0,0,0,3.063.541,7.575,7.575,0,0,0,3.346-.741,8.152,8.152,0,0,0,2.78-2.166l.255-.285Z" transform="translate(-437.057 -101.319)"/><path class="d" d="M527.609,104.338a10.29,10.29,0,0,1,0,14.365,9.665,9.665,0,0,1-7.119,2.936,9.886,9.886,0,0,1-7.2-2.936,9.692,9.692,0,0,1-2.921-7.1,10.277,10.277,0,0,1,1.333-5.131,9.913,9.913,0,0,1,8.622-5.045A9.976,9.976,0,0,1,527.609,104.338Zm.17,7.182a7.611,7.611,0,0,0-.936-3.762,7.529,7.529,0,0,0-6.439-3.677,7.162,7.162,0,0,0-3.63,1,7.682,7.682,0,0,0-2.695,2.707,7.544,7.544,0,0,0-.964,3.82,7.353,7.353,0,0,0,.539,2.878,7.03,7.03,0,0,0,1.588,2.366,7.21,7.21,0,0,0,5.162,2.138,7.642,7.642,0,0,0,3.744-.969,6.908,6.908,0,0,0,2.666-2.707A7.386,7.386,0,0,0,527.779,111.519Z" transform="translate(-457.925 -101.373)"/><path class="d" d="M571.527,121.865h-3.346l-6.58-8.551h-.4v8.551h-2.695V102.6h4.084q.766,0,1.248.029t.781.071a4.083,4.083,0,0,1,.453.086c.1.029.2.053.3.072a5.137,5.137,0,0,1,2.865,1.738,4.985,4.985,0,0,1,1.134,3.335,5.262,5.262,0,0,1-.766,2.85,4.578,4.578,0,0,1-.95,1.126,5.165,5.165,0,0,1-1.262.784q-.482.229-.78.356a5.838,5.838,0,0,1-.695.243Zm-7.6-11.173a2.518,2.518,0,0,0,.794-.086,6.849,6.849,0,0,0,.624-.285,1.336,1.336,0,0,0,.5-.4c.085-.133.2-.3.355-.513a2.8,2.8,0,0,0,.425-1.51,2.571,2.571,0,0,0-.425-1.426,3.384,3.384,0,0,0-.483-.584,3.164,3.164,0,0,0-.482-.385,2.381,2.381,0,0,0-1.22-.257H561.2v5.416Z" transform="translate(-481.527 -101.943)"/><path class="d" d="M603.677,105.3H595v4.9h8.593v2.679H595v6.384h8.593v2.65H592.3V102.654h11.373Z" transform="translate(-498.096 -101.97)"/></g><rect class="c" width="0.363" height="19.55" transform="translate(116.737 0.543)"/><g transform="translate(202.733 11.686)"><path class="d" d="M805.327,127.377a1.712,1.712,0,0,0,.87.246c.5,0,.786-.263.786-.644,0-.353-.2-.555-.707-.75-.614-.219-.994-.538-.994-1.071a1.084,1.084,0,0,1,1.216-1.026,1.7,1.7,0,0,1,.831.185l-.134.4a1.491,1.491,0,0,0-.714-.18c-.513,0-.708.308-.708.566,0,.353.229.527.747.728.636.247.959.555.959,1.11,0,.583-.429,1.087-1.316,1.087a1.937,1.937,0,0,1-.959-.241Z" transform="translate(-805.205 -124.132)"/><path class="d" d="M814.042,126.371c-.028-.527-.062-1.16-.056-1.631h-.017c-.128.443-.284.913-.474,1.435l-.663,1.832h-.369l-.608-1.8c-.178-.532-.329-1.02-.435-1.468h-.011c-.011.471-.039,1.1-.072,1.67l-.1,1.62h-.463l.262-3.777h.619l.641,1.827c.156.466.284.88.379,1.272h.017c.095-.381.228-.8.4-1.272l.669-1.827h.619l.235,3.777h-.475Z" transform="translate(-807.935 -124.191)"/></g></g></svg>