<svg xmlns="http://www.w3.org/2000/svg" width="20.332" height="21.229" viewBox="0 0 20.332 21.229"><defs><style>.a{fill:#fff;}</style></defs><path class="a" d="M19.971,18.983l-4.613-4.989a8.625,8.625,0,0,0,.506-.71,8.358,8.358,0,0,0,.751-1.445,8.025,8.025,0,0,0,.457-1.568,8.553,8.553,0,0,0,.155-1.649,8.983,8.983,0,0,0-.163-1.69,7.8,7.8,0,0,0-.49-1.608,8.579,8.579,0,0,0-.792-1.478,9.074,9.074,0,0,0-1.07-1.315A8.851,8.851,0,0,0,13.4,1.445,8.36,8.36,0,0,0,11.912.653a9.062,9.062,0,0,0-1.6-.49A8.792,8.792,0,0,0,8.647,0H8.606A8.339,8.339,0,0,0,6.924.171,8.665,8.665,0,0,0,5.315.653a9.179,9.179,0,0,0-1.478.792A8.373,8.373,0,0,0,2.523,2.531,8.339,8.339,0,0,0,1.445,3.837,8.578,8.578,0,0,0,.653,5.315a8.024,8.024,0,0,0-.49,1.617A8.9,8.9,0,0,0,0,8.614,9.049,9.049,0,0,0,.163,10.3a7.951,7.951,0,0,0,.49,1.608,8.578,8.578,0,0,0,.792,1.478A8.771,8.771,0,0,0,2.515,14.7a8.615,8.615,0,0,0,1.323,1.1,8.36,8.36,0,0,0,1.486.792,8.483,8.483,0,0,0,1.608.482,8.944,8.944,0,0,0,1.674.163,7.474,7.474,0,0,0,1.478-.122,9.323,9.323,0,0,0,1.4-.359,8.269,8.269,0,0,0,1.315-.588c.2-.114.4-.229.588-.359L18,20.788a1.245,1.245,0,0,0,.482.343,1.362,1.362,0,0,0,.506.1h.008a1.35,1.35,0,0,0,.441-.073,1.064,1.064,0,0,0,.441-.253,1.257,1.257,0,0,0,.457-.947A1.334,1.334,0,0,0,19.971,18.983Zm-5.879-8.059a6.093,6.093,0,0,1-1.274,1.894A5.979,5.979,0,0,1,10.925,14.1a5.786,5.786,0,0,1-2.311.465,5.89,5.89,0,0,1-2.3-.465,5.979,5.979,0,0,1-1.894-1.282,6.117,6.117,0,0,1-1.282-1.894,5.612,5.612,0,0,1-.465-2.3V8.614a5.89,5.89,0,0,1,.465-2.3A6.093,6.093,0,0,1,4.409,4.417,5.955,5.955,0,0,1,6.3,3.143a5.728,5.728,0,0,1,2.311-.465,5.861,5.861,0,0,1,2.3.465,6.093,6.093,0,0,1,1.894,1.274,5.979,5.979,0,0,1,1.282,1.894,5.7,5.7,0,0,1,.465,2.311A5.612,5.612,0,0,1,14.092,10.925Z"/></svg>