<svg xmlns="http://www.w3.org/2000/svg" width="24.902" height="26" viewBox="0 0 24.902 26"><defs><style>.a{fill:#8bc13f;}</style></defs><path class="a" d="M24.46,23.25l-5.65-6.11a10.563,10.563,0,0,0,.62-.87,10.236,10.236,0,0,0,.92-1.77,9.829,9.829,0,0,0,.56-1.92,10.475,10.475,0,0,0,.19-2.02,11,11,0,0,0-.2-2.07,9.548,9.548,0,0,0-.6-1.97,10.507,10.507,0,0,0-.97-1.81A11.113,11.113,0,0,0,18.02,3.1a10.84,10.84,0,0,0-1.61-1.33A10.239,10.239,0,0,0,14.59.8,11.1,11.1,0,0,0,12.63.2,10.769,10.769,0,0,0,10.59,0h-.05A10.214,10.214,0,0,0,8.48.21,10.613,10.613,0,0,0,6.51.8a11.242,11.242,0,0,0-1.81.97A10.255,10.255,0,0,0,3.09,3.1,10.214,10.214,0,0,0,1.77,4.7,10.507,10.507,0,0,0,.8,6.51,9.828,9.828,0,0,0,.2,8.49,10.9,10.9,0,0,0,0,10.55a11.083,11.083,0,0,0,.2,2.07,9.738,9.738,0,0,0,.6,1.97,10.507,10.507,0,0,0,.97,1.81A10.742,10.742,0,0,0,3.08,18,10.551,10.551,0,0,0,4.7,19.35a10.239,10.239,0,0,0,1.82.97,10.39,10.39,0,0,0,1.97.59,10.954,10.954,0,0,0,2.05.2,9.154,9.154,0,0,0,1.81-.15,11.419,11.419,0,0,0,1.72-.44,10.128,10.128,0,0,0,1.61-.72c.25-.14.49-.28.72-.44l5.64,6.1a1.525,1.525,0,0,0,.59.42,1.668,1.668,0,0,0,.62.12h.01a1.654,1.654,0,0,0,.54-.09,1.3,1.3,0,0,0,.54-.31,1.539,1.539,0,0,0,.56-1.16A1.634,1.634,0,0,0,24.46,23.25Zm-7.2-9.87A7.462,7.462,0,0,1,15.7,15.7a7.323,7.323,0,0,1-2.32,1.57,7.087,7.087,0,0,1-2.83.57,7.214,7.214,0,0,1-2.82-.57A7.323,7.323,0,0,1,5.41,15.7a7.492,7.492,0,0,1-1.57-2.32,6.873,6.873,0,0,1-.57-2.82v-.01a7.214,7.214,0,0,1,.57-2.82A7.462,7.462,0,0,1,5.4,5.41,7.294,7.294,0,0,1,7.72,3.85a7.015,7.015,0,0,1,2.83-.57,7.178,7.178,0,0,1,2.82.57,7.462,7.462,0,0,1,2.32,1.56,7.323,7.323,0,0,1,1.57,2.32,6.984,6.984,0,0,1,.57,2.83A6.873,6.873,0,0,1,17.26,13.38Z"/></svg>