<svg xmlns="http://www.w3.org/2000/svg" width="32.794" height="32.794" viewBox="0 0 32.794 32.794"><defs><style>.a{fill:#8bc105;}.b{fill:#fff;}</style></defs><g transform="translate(-365.45 -890)"><path class="a" d="M16.4,0A16.4,16.4,0,1,1,0,16.4,16.4,16.4,0,0,1,16.4,0Z" transform="translate(365.45 890)"/><path class="b" d="M18.61,8.4,12.05.38,11.73,0l-.39.32L10.09,1.34l-.38.32.32.39,4.81,5.87H0v2.62H14.83l-4.81,5.88-.32.39.39.32,1.26,1.03.39.32.32-.39,6.56-8.02A1.352,1.352,0,0,0,18.61,8.4Z" transform="translate(372 897)"/></g></svg>