<svg xmlns="http://www.w3.org/2000/svg" width="20.689" height="29.338" viewBox="0 0 20.689 29.338"><defs><style>.a{fill:#8bc105;}</style></defs><path class="a" d="M14.23,29.216a12.689,12.689,0,0,1-1.619-.615A14.012,14.012,0,0,1,11,27.738c-.544-.343-1.064-.709-1.572-1.1a17.654,17.654,0,0,1-1.536-1.347,19.548,19.548,0,0,1-1.359-1.43q-.656-.762-1.276-1.6c-.4-.555-.8-1.135-1.182-1.726S3.345,19.335,3,18.709s-.626-1.265-.91-1.915-.544-1.3-.768-1.938-.425-1.3-.6-1.95S.4,11.606.3,10.979c-.106-.7-.2-1.371-.248-2.033A17.467,17.467,0,0,1,.012,7.02,15.355,15.355,0,0,1,.189,5.212a10.447,10.447,0,0,1,.39-1.7,2.779,2.779,0,0,1,.532-.969,5.019,5.019,0,0,1,.8-.78,5.312,5.312,0,0,1,.863-.591C3.061,1,3.3.886,3.475.8A7.868,7.868,0,0,1,4.337.437c.307-.106.626-.2.945-.284A6.215,6.215,0,0,1,6.2.011,1.994,1.994,0,0,1,7,.094a1.57,1.57,0,0,1,.685.461,5.7,5.7,0,0,1,.733,1.016c.177.319.366.685.555,1.087s.378.851.555,1.324c.047.142.142.4.284.792s.26.815.39,1.276a13.876,13.876,0,0,1,.284,1.395,2.647,2.647,0,0,1-.024,1.1A1.576,1.576,0,0,1,9.431,9.561a16.71,16.71,0,0,1-1.8.579c-.248.059-.5.13-.756.2a4.364,4.364,0,0,0-.662.225,1.662,1.662,0,0,0-.437.213.508.508,0,0,0-.118.106,11.146,11.146,0,0,0,.579,2.647,18.41,18.41,0,0,0,1.217,2.8A18.175,18.175,0,0,0,9.1,18.9a11.371,11.371,0,0,0,1.867,1.974,1.509,1.509,0,0,0,.154-.047,2.013,2.013,0,0,0,.414-.225,6.441,6.441,0,0,0,.555-.437l.6-.52a13.821,13.821,0,0,1,1.466-1.17,1.57,1.57,0,0,1,1.418-.284,2.67,2.67,0,0,1,.934.591,9.962,9.962,0,0,1,.981,1.016c.319.366.591.709.839,1.04l.508.685q.425.62.78,1.206c.213.355.414.721.591,1.087a5.045,5.045,0,0,1,.425,1.158,1.681,1.681,0,0,1,0,.839,2.278,2.278,0,0,1-.378.709,5.747,5.747,0,0,1-.626.685,7.729,7.729,0,0,1-.768.626,7.885,7.885,0,0,1-.78.508c-.177.106-.4.225-.7.366a7.546,7.546,0,0,1-.969.39,5.008,5.008,0,0,1-1.111.225A2.593,2.593,0,0,1,14.23,29.216Z" transform="translate(0 -0.003)"/></svg>