<svg xmlns="http://www.w3.org/2000/svg" xmlns:xlink="http://www.w3.org/1999/xlink" width="192.565" height="35.628" viewBox="0 0 192.565 35.628"><defs><style>.a{fill:none;}.b{clip-path:url(#a);}.c{fill:#78818c;}.d{fill:#fff;}.e{fill:#0070ba;}</style><clipPath id="a"><rect class="a" width="192.565" height="35.628"/></clipPath></defs><g class="b"><g transform="translate(32.152 25.855)"><rect class="c" width="135.343" height="9.773"/><g transform="translate(4.209 2.091)"><path class="d" d="M519.838,165.127H520.9l2.123,5.323h-1.092l-.432-1.1H519.25l-.449,1.1h-1.092Zm.539,1.411-.741,1.827h1.477Z" transform="translate(-517.709 -164.993)"/><path class="d" d="M545.529,165.625l-.778.662a1.107,1.107,0,0,0-.835-.55.52.52,0,0,0-.338.107.307.307,0,0,0-.132.241.4.4,0,0,0,.094.253,7.01,7.01,0,0,0,.771.684q.6.485.73.611a2.137,2.137,0,0,1,.453.6,1.444,1.444,0,0,1,.133.62,1.4,1.4,0,0,1-.47,1.082,1.751,1.751,0,0,1-1.225.427,1.876,1.876,0,0,1-1.027-.279,2.225,2.225,0,0,1-.749-.876l.883-.514q.4.705.917.706a.692.692,0,0,0,.455-.152.448.448,0,0,0,.184-.351.592.592,0,0,0-.139-.362,3.943,3.943,0,0,0-.613-.554,6.075,6.075,0,0,1-1.165-1.095,1.357,1.357,0,0,1-.263-.769,1.239,1.239,0,0,1,.438-.95,1.551,1.551,0,0,1,1.08-.4,1.752,1.752,0,0,1,.787.185A2.831,2.831,0,0,1,545.529,165.625Z" transform="translate(-533.189 -164.767)"/><path class="d" d="M565.657,165.625l-.778.662a1.106,1.106,0,0,0-.834-.55.518.518,0,0,0-.338.107.307.307,0,0,0-.132.241.4.4,0,0,0,.094.253,6.975,6.975,0,0,0,.771.684q.6.485.729.611a2.13,2.13,0,0,1,.453.6,1.443,1.443,0,0,1,.134.62,1.4,1.4,0,0,1-.469,1.082,1.751,1.751,0,0,1-1.225.427,1.875,1.875,0,0,1-1.027-.279,2.218,2.218,0,0,1-.749-.876l.883-.514q.4.705.917.706a.691.691,0,0,0,.454-.152.447.447,0,0,0,.184-.351.594.594,0,0,0-.139-.362,3.969,3.969,0,0,0-.613-.554,6.071,6.071,0,0,1-1.165-1.095,1.355,1.355,0,0,1-.263-.769,1.238,1.238,0,0,1,.437-.95,1.551,1.551,0,0,1,1.08-.4,1.751,1.751,0,0,1,.787.185A2.84,2.84,0,0,1,565.657,165.625Z" transform="translate(-545.935 -164.767)"/><path class="d" d="M583.508,165.127h3.013v.992h-1.97v.963h1.97v.974h-1.97v1.4h1.97v1h-3.013Z" transform="translate(-559.374 -164.993)"/><path class="d" d="M602.288,165.127h3.051v1h-1.005v4.325h-1.066v-4.325h-.979Z" transform="translate(-571.265 -164.993)"/><path class="d" d="M636.26,165.127h1.024l1.28,3.713,1.291-3.713h1.023l.926,5.323h-1.016l-.592-3.362-1.173,3.362H638.1l-1.162-3.362-.606,3.362H635.3Z" transform="translate(-592.172 -164.993)"/><path class="d" d="M665.663,165.127h1.065l2.123,5.323h-1.092l-.432-1.1h-2.253l-.449,1.1h-1.092Zm.539,1.411-.74,1.827h1.477Z" transform="translate(-610.047 -164.993)"/><path class="d" d="M689.121,165.127h1.008l2.362,3.5v-3.5h1.051v5.323h-1.011l-2.359-3.493v3.493h-1.051Z" transform="translate(-626.249 -164.993)"/><path class="d" d="M714.382,165.127h1.066l2.123,5.323h-1.092l-.432-1.1h-2.252l-.449,1.1h-1.092Zm.539,1.411-.741,1.827h1.477Z" transform="translate(-640.897 -164.993)"/><path class="d" d="M741.783,165.769l-.74.706a2.223,2.223,0,0,0-1.638-.716,1.909,1.909,0,0,0-1.365.521,1.68,1.68,0,0,0-.55,1.266,1.723,1.723,0,0,0,.571,1.307,1.981,1.981,0,0,0,1.408.536,1.781,1.781,0,0,0,.919-.221,1.569,1.569,0,0,0,.6-.691h-1.6v-.952h2.777l.007.225a2.538,2.538,0,0,1-.375,1.324,2.577,2.577,0,0,1-.972.955,2.853,2.853,0,0,1-1.4.329A3.2,3.2,0,0,1,737.9,170a2.683,2.683,0,0,1-1.066-1.026,2.782,2.782,0,0,1-.392-1.437,2.617,2.617,0,0,1,.724-1.838,2.9,2.9,0,0,1,2.237-.93,3.518,3.518,0,0,1,1.347.257A3.085,3.085,0,0,1,741.783,165.769Z" transform="translate(-656.212 -164.767)"/><path class="d" d="M763.7,165.127h3.013v.992h-1.97v.963h1.97v.974h-1.97v1.4h1.97v1H763.7Z" transform="translate(-673.476 -164.993)"/><path class="d" d="M783.833,165.127h1.024l1.28,3.713,1.291-3.713h1.023l.926,5.323h-1.016l-.592-3.362-1.173,3.362h-.926l-1.162-3.362-.606,3.362h-1.024Z" transform="translate(-685.617 -164.993)"/><path class="d" d="M812.1,165.127h3.013v.992h-1.97v.963h1.97v.974h-1.97v1.4h1.97v1H812.1Z" transform="translate(-704.118 -164.993)"/><path class="d" d="M832.438,165.127h1.008l2.362,3.5v-3.5h1.051v5.323h-1.011l-2.359-3.493v3.493h-1.051Z" transform="translate(-716.999 -164.993)"/><path class="d" d="M855.434,165.127h3.051v1h-1.006v4.325h-1.066v-4.325h-.979Z" transform="translate(-731.561 -164.993)"/></g></g><g transform="translate(0 0.541)"><path class="e" d="M418.575,93.187v-2.02h9.1v1.21l15.8,26.168V94.608a1.337,1.337,0,0,0-.27-.785,1.076,1.076,0,0,0-.8-.441l-2.589-.195v-2.02h8.512v2.027l-1.2.188a1.061,1.061,0,0,0-.814.443,1.379,1.379,0,0,0-.257.783v31.549h-2.631l-18.3-30.364-.178-.3v27.217a1.38,1.38,0,0,0,.257.784,1.059,1.059,0,0,0,.816.443l2.59.194v2.021h-9.948v-2.021l2.591-.194a1.133,1.133,0,0,0,.834-.44,1.306,1.306,0,0,0,.282-.787V94.608a1.307,1.307,0,0,0-.282-.787,1.137,1.137,0,0,0-.837-.439" transform="translate(-418.575 -91.167)"/></g><path class="e" d="M506.233,112.234V110.88l.916-.124a.716.716,0,0,0,.683-.693V93.25a.716.716,0,0,0-.683-.693l-.916-.124V91.079h15.09v4.7h-1.865l-.47-2.586a.783.783,0,0,0-.189-.416.479.479,0,0,0-.372-.185H511v7.853h5.348a.525.525,0,0,0,.387-.184.537.537,0,0,0,.175-.354l.318-2.171h1.578v7.037h-1.578l-.318-2.187a.578.578,0,0,0-.182-.369.521.521,0,0,0-.38-.2H511v8.684h8.548a.466.466,0,0,0,.364-.216.928.928,0,0,0,.2-.385l.561-3.125h1.668v5.265Z" transform="translate(-474.081 -90.571)"/><path class="e" d="M581.221,92.8l-4.747,19.939H574.2l-5.187-17.475-5.081,17.475h-2.244L556.621,92.8l-1.8-.37V91.079h7.113v1.355l-1.85.185a.342.342,0,0,0-.288.223.7.7,0,0,0-.03.408l3.7,14.226,4.869-16.4h2.4l5,16.905,3.443-14.735a.534.534,0,0,0-.076-.408.48.48,0,0,0-.364-.223l-1.956-.185V91.079h6.34v1.355Z" transform="translate(-504.845 -90.571)"/><path class="e" d="M652.634,105.983a6.435,6.435,0,0,1-.357,2.241,5.244,5.244,0,0,1-.963,1.655,5.442,5.442,0,0,1-1.4,1.148,8.283,8.283,0,0,1-1.668.723,10.058,10.058,0,0,1-1.775.378,14.528,14.528,0,0,1-1.721.108h-8.69V110.88l1.638-.124a.654.654,0,0,0,.493-.246.743.743,0,0,0,.159-.446V93.25a.743.743,0,0,0-.159-.446.654.654,0,0,0-.493-.246l-1.638-.124V91.079h8.311a12.72,12.72,0,0,1,3.178.347,5.943,5.943,0,0,1,2.176,1.008,3.958,3.958,0,0,1,1.244,1.6,5.444,5.444,0,0,1,.394,2.125,4.263,4.263,0,0,1-.44,2.017,4.715,4.715,0,0,1-1.107,1.4,5.7,5.7,0,0,1-1.456.909,11.21,11.21,0,0,1-1.471.523,8.56,8.56,0,0,1,2.07.254,5.352,5.352,0,0,1,1.843.84,4.39,4.39,0,0,1,1.327,1.539A4.929,4.929,0,0,1,652.634,105.983Zm-4.625-9.607a3.52,3.52,0,0,0-1.183-2.856,5.5,5.5,0,0,0-3.594-.993c-.161,0-.336.005-.523.015s-.364.02-.531.031-.316.02-.448.031-.222.015-.273.015v7.975c.142.011.283.015.425.015.121.011.242.016.364.016h.333a9.825,9.825,0,0,0,2.556-.285,4.33,4.33,0,0,0,1.676-.824,3.045,3.045,0,0,0,.918-1.332A5.414,5.414,0,0,0,648.008,96.376Zm1.243,9.869a3.789,3.789,0,0,0-1.259-3.156,5.935,5.935,0,0,0-3.746-1q-.38,0-.842.031t-.872.062c-.273.02-.511.041-.713.061s-.324.031-.364.031v8.33q.379.031.743.046c.2.021.412.034.629.039s.4.008.553.008a11.594,11.594,0,0,0,2.753-.277,4.691,4.691,0,0,0,1.812-.831,3.1,3.1,0,0,0,1-1.386A5.716,5.716,0,0,0,649.252,106.245Z" transform="translate(-556.287 -90.571)"/><path class="e" d="M739.367,112.234V110.88l1.85-.124a.653.653,0,0,0,.493-.246.741.741,0,0,0,.159-.446V93.25a.663.663,0,0,0-.652-.662l-1.85-.122V91.079h8.19v1.386l-1.9.122a.693.693,0,0,0-.486.232.659.659,0,0,0-.167.43v16.814a.721.721,0,0,0,.167.446.664.664,0,0,0,.486.246l1.9.124v1.355Z" transform="translate(-621.705 -90.571)"/><path class="e" d="M788.441,101.611a14.05,14.05,0,0,1-.257,2.7,11.025,11.025,0,0,1-.8,2.5,9.228,9.228,0,0,1-1.4,2.179,8.466,8.466,0,0,1-2.055,1.716,10.228,10.228,0,0,1-2.753,1.125,14.122,14.122,0,0,1-3.511.4h-8.629V110.88l1.638-.124a.715.715,0,0,0,.682-.693V93.25a.715.715,0,0,0-.682-.693l-1.638-.124V91.079h8.008a15.835,15.835,0,0,1,4.535.623,9.884,9.884,0,0,1,3.618,1.917,8.857,8.857,0,0,1,2.388,3.28A11.741,11.741,0,0,1,788.441,101.611Zm-3.519.061a13.6,13.6,0,0,0-.568-4.211,7.2,7.2,0,0,0-1.623-2.818,6.135,6.135,0,0,0-2.548-1.57,10.75,10.75,0,0,0-3.329-.486h-2.366v18.138l2.518-.031a10.272,10.272,0,0,0,3.253-.516,6.153,6.153,0,0,0,2.495-1.578,7.3,7.3,0,0,0,1.6-2.787A13.205,13.205,0,0,0,784.922,101.672Z" transform="translate(-640.487 -90.571)"/><path class="e" d="M844.958,102.678a.693.693,0,0,0-.493.223.671.671,0,0,0-.159.439v7.283a19.947,19.947,0,0,1-2,.631,20.93,20.93,0,0,1-2.085.439,14.985,14.985,0,0,1-2.434.193,11.8,11.8,0,0,1-3.208-.416,10.23,10.23,0,0,1-2.685-1.17,9.767,9.767,0,0,1-2.131-1.793,10.766,10.766,0,0,1-1.555-2.271,11.251,11.251,0,0,1-.948-2.624,13.335,13.335,0,0,1,.455-7.375,9.691,9.691,0,0,1,2.229-3.488,9.985,9.985,0,0,1,3.541-2.24,13.123,13.123,0,0,1,4.694-.793,13.537,13.537,0,0,1,1.676.1q.8.1,1.54.255t1.456.347q.713.192,1.426.377v5.1H842.41l-.5-2.833a.871.871,0,0,0-.228-.47,1.208,1.208,0,0,0-.394-.285q-.228-.093-.554-.231T840,91.8a7.572,7.572,0,0,0-.9-.223,5.678,5.678,0,0,0-1.039-.092,7.716,7.716,0,0,0-3.079.6,6.577,6.577,0,0,0-2.4,1.755,8.149,8.149,0,0,0-1.555,2.856,12.611,12.611,0,0,0-.553,3.9,13.35,13.35,0,0,0,.561,4.034,8.479,8.479,0,0,0,1.6,2.986,6.85,6.85,0,0,0,2.51,1.855,8.185,8.185,0,0,0,3.291.639,6.128,6.128,0,0,0,.986-.077q.47-.077.834-.162t.607-.162a1.507,1.507,0,0,1,.3-.077v-6.3a.671.671,0,0,0-.159-.439.693.693,0,0,0-.493-.223l-2.077-.154v-1.371h7.407v1.371Z" transform="translate(-677.157 -89.714)"/><g transform="translate(169.544 0.508)"><path class="e" d="M881.761,126.2h22.076v-8.037h-1.878l-.816,4.908a1.976,1.976,0,0,1-.374.81,1.07,1.07,0,0,1-.875.521H887.329V109.08h7.6a1.15,1.15,0,0,1,.88.471,1.376,1.376,0,0,1,.374.872l.445,3.271h1.726v-11h-1.726l-.445,3.275a1.322,1.322,0,0,1-.367.822,1.16,1.16,0,0,1-.887.44h-7.6v-14.4h11.3a1.093,1.093,0,0,1,.875.454,1.745,1.745,0,0,1,.376.893l.672,3.989h2.184V91.079H880.815V92.61l1.442.167a1.433,1.433,0,0,1,1.05.564,1.627,1.627,0,0,1,.349.983v28.629a1.39,1.39,0,0,1-.349.983,2.213,2.213,0,0,1-1.056.566l-.49.14Z" transform="translate(-880.815 -91.079)"/></g><g transform="translate(97.999 0.508)"><path class="e" d="M702.572,110.594a2.988,2.988,0,0,1-1.192-.853,3.535,3.535,0,0,1-.649-1.231q-.209-.693-.372-1.454t-.373-1.538a5.414,5.414,0,0,0-.64-1.469,4.5,4.5,0,0,0-1.177-1.239,5.655,5.655,0,0,0-1.982-.853,11.869,11.869,0,0,0,1.878-.617,5.767,5.767,0,0,0,1.6-1,4.6,4.6,0,0,0,1.11-1.51,5.028,5.028,0,0,0,.417-2.141,6.034,6.034,0,0,0-.514-2.627,4.334,4.334,0,0,0-1.482-1.734,6.518,6.518,0,0,0-2.354-.955,15.208,15.208,0,0,0-3.129-.293h-7.957v1.355l1.579.124a.689.689,0,0,1,.5.246.713.713,0,0,1,.171.446v16.814a.713.713,0,0,1-.171.446.689.689,0,0,1-.5.246l-1.579.124v1.355h7.584V110.88l-1.609-.124a.637.637,0,0,1-.484-.246.751.751,0,0,1-.156-.446v-7.19l.149-.007c.089-.006.2-.013.32-.023s.266-.018.425-.023.318-.008.477-.008a5.28,5.28,0,0,1,2.28.424,3.993,3.993,0,0,1,1.431,1.124,5.376,5.376,0,0,1,.857,1.594q.3.893.558,1.825c.169.621.288,1.071.487,1.666a5.513,5.513,0,0,0,.827,1.594,3.837,3.837,0,0,0,1.378,1.124,5.088,5.088,0,0,0,2.22.33c.228,0,.682,0,1.316-.042a.217.217,0,0,0,.051-.015v-1.556A4.354,4.354,0,0,1,702.572,110.594Zm-7.711-9.516a10.165,10.165,0,0,1-2.25.224c-.12,0-.261,0-.425-.007s-.323-.008-.477-.008-.291,0-.41-.008l-.208-.008V92.619h1.4a9.508,9.508,0,0,1,2.466.277,4.364,4.364,0,0,1,1.669.818,3.169,3.169,0,0,1,.946,1.319,5.007,5.007,0,0,1,.3,1.8,5.731,5.731,0,0,1-.343,2.121,3.237,3.237,0,0,1-1.013,1.38A4.121,4.121,0,0,1,694.861,101.078Z" transform="translate(-685.757 -91.079)"/></g></g></svg>