<svg xmlns="http://www.w3.org/2000/svg" width="30" height="30" viewBox="0 0 30 30"><defs><style>.a{fill:#8bc105;}.b{fill:#fff;}</style></defs><g transform="translate(-365.45 -890)"><path class="a" d="M15,0A15,15,0,1,1,0,15,15,15,0,0,1,15,0Z" transform="translate(365.45 890)"/><path class="b" d="M15.859,7.13,10.269.323,10,0,9.664.272,8.6,1.137l-.324.272.273.331,4.1,4.983H0V8.946H12.638l-4.1,4.991-.273.331.332.272,1.074.874.332.272.273-.331,5.59-6.807A1.144,1.144,0,0,0,15.859,7.13Z" transform="translate(372 897)"/></g></svg>