<svg xmlns="http://www.w3.org/2000/svg" width="21" height="26.943" viewBox="0 0 21 26.943"><defs><style>.a,.c{fill:#8bc105;}.b{fill:#fff;}.c{font-size:9px;font-family:BentonSans-Bold, Benton Sans;font-weight:700;}</style></defs><g transform="translate(0)"><g transform="translate(-1144.756 -790)"><rect class="a" width="18" height="17" transform="translate(1145 790)"/><g transform="translate(-12.82 -33.057)"><g transform="translate(1161 824.158)"><path class="b" d="M85.031,80.415a1.271,1.271,0,0,0,.052,1.721c.514-1.131-.029-1.728-.052-1.721m.329,4.528a37.917,37.917,0,0,1-1.449,4.047,27.335,27.335,0,0,1,3.519-1.081,18.307,18.307,0,0,1-2.07-2.966m4.047,3.521c.441.335.549.5.838.5a.69.69,0,0,0,.779-.457c-.066-.035-.155-.105-.637-.105a7.942,7.942,0,0,0-.981.057m-7.388,2.377c-1.158.642-1.63,1.17-1.664,1.468-.006.05-.02.179.233.37.081-.026.552-.238,1.43-1.838m-1.442,2.742a.877.877,0,0,1-.524-.174,1.278,1.278,0,0,1-.6-1.2c.1-.87,1.189-1.783,3.242-2.712a35.63,35.63,0,0,0,2.052-5.752c-.54-1.162-1.066-2.67-.683-3.554a1.034,1.034,0,0,1,.614-.651,2.729,2.729,0,0,1,.551-.091c.284,0,.557.339.689.56a2.2,2.2,0,0,1,.207,1.346,11.937,11.937,0,0,1-.2,1.33c-.064.323-.136.644-.214.964A17.076,17.076,0,0,0,88.462,87.7a10.691,10.691,0,0,1,1.82-.191c.848,0,1.362.2,1.572.6a1.072,1.072,0,0,1-.211,1.156,1.443,1.443,0,0,1-1.2.637,3.616,3.616,0,0,1-2.282-1.223,26.221,26.221,0,0,0-4.782,1.51,15.135,15.135,0,0,1-1.291,2.275c-.554.77-1.033,1.128-1.507,1.128" transform="translate(-79.441 -79.449)"/></g><text class="c" transform="translate(1157.576 848)"><tspan x="0" y="0">PDF </tspan></text></g></g></g></svg>